<svg width="538" height="334" viewBox="0 0 538 334" fill="none" xmlns="http://www.w3.org/2000/svg">
<path d="M580 0H0V334H580V0Z" fill="white"/>
<path d="M289.971 41.5C317.955 41.4943 345.312 49.7862 368.583 65.3272C391.855 80.8683 409.996 102.961 420.713 128.811C431.429 154.661 434.24 183.109 428.791 210.557C423.341 238.005 409.875 263.22 390.095 283.016C370.316 302.811 345.111 316.297 317.667 321.769C290.224 327.24 261.774 324.452 235.915 313.756C210.056 303.06 187.949 284.936 172.39 261.677C156.83 238.418 148.517 211.068 148.5 183.084L290 183L289.971 41.5Z" fill="#3298B4" stroke="white" stroke-linejoin="round"/>
<path d="M148.5 182.942C148.512 153.1 157.959 124.026 175.49 99.8755C193.021 75.7253 217.738 57.736 246.109 48.4794L290 183L148.5 182.942Z" fill="#ED561B" stroke="white" stroke-linejoin="round"/>
<path d="M246.243 48.4355C249.024 47.5312 251.833 46.7132 254.665 45.9829L290 183L246.243 48.4355Z" fill="#DDDF00" stroke="white" stroke-linejoin="round"/>
<path d="M254.802 45.9476C260.514 44.4806 266.313 43.3721 272.164 42.6287L290 183L254.802 45.9476Z" fill="#242AE5" stroke="white" stroke-linejoin="round"/>
<path d="M272.304 42.6109C278.109 41.8792 283.953 41.5082 289.803 41.5001L290 183L272.304 42.6109Z" fill="#64E572" stroke="white" stroke-linejoin="round"/>
<path d="M416.269 303.769C411.269 303.769 405.612 298.112 397.834 290.334L390.056 282.556" stroke="#3298B4"/>
<path d="M146.254 81.6948C151.254 81.6948 157.726 86.3971 166.625 92.8627L175.524 99.3284" stroke="#ED561B"/>
<path d="M172.563 53C177.563 53 244.385 25.492 247.454 36.0552L250.523 46.6184" stroke="#DDDF00"/>
<path d="M202.769 32C207.769 32 259.363 21.896 261.424 32.7012L263.486 43.5063" stroke="#242AE5"/>
<path d="M274.231 11C279.231 11 279.734 19.3226 280.424 30.3009L281.115 41.2792" stroke="#64E572"/>
<path d="M426.632 309V301.727H431.447V302.995H428.17V304.728H431.128V305.996H428.17V309H426.632ZM433.94 309.103C433.592 309.103 433.282 309.043 433.01 308.922C432.738 308.799 432.522 308.618 432.364 308.379C432.207 308.137 432.129 307.836 432.129 307.477C432.129 307.174 432.185 306.919 432.296 306.713C432.407 306.507 432.559 306.341 432.751 306.216C432.942 306.09 433.16 305.996 433.404 305.932C433.65 305.868 433.908 305.823 434.178 305.797C434.496 305.764 434.751 305.733 434.945 305.705C435.139 305.674 435.28 305.629 435.368 305.57C435.455 305.51 435.499 305.423 435.499 305.307V305.286C435.499 305.061 435.428 304.887 435.286 304.763C435.147 304.64 434.948 304.579 434.69 304.579C434.417 304.579 434.201 304.639 434.04 304.76C433.879 304.878 433.772 305.027 433.72 305.207L432.321 305.094C432.392 304.762 432.532 304.476 432.74 304.234C432.948 303.991 433.217 303.804 433.546 303.673C433.878 303.541 434.261 303.474 434.697 303.474C435 303.474 435.29 303.51 435.567 303.581C435.846 303.652 436.094 303.762 436.309 303.911C436.527 304.06 436.698 304.252 436.824 304.487C436.949 304.719 437.012 304.997 437.012 305.321V309H435.577V308.244H435.535C435.447 308.414 435.33 308.564 435.183 308.695C435.036 308.822 434.86 308.923 434.654 308.996C434.448 309.067 434.21 309.103 433.94 309.103ZM434.374 308.059C434.596 308.059 434.793 308.015 434.963 307.928C435.134 307.838 435.267 307.717 435.364 307.565C435.461 307.414 435.51 307.242 435.51 307.05V306.472C435.463 306.502 435.397 306.531 435.315 306.557C435.234 306.58 435.143 306.603 435.041 306.624C434.939 306.643 434.838 306.661 434.736 306.678C434.634 306.692 434.542 306.705 434.459 306.717C434.281 306.743 434.126 306.784 433.994 306.841C433.861 306.898 433.758 306.975 433.685 307.072C433.611 307.166 433.575 307.285 433.575 307.427C433.575 307.633 433.649 307.79 433.798 307.899C433.95 308.006 434.142 308.059 434.374 308.059ZM438.186 309V303.545H439.699V309H438.186ZM438.946 302.842C438.721 302.842 438.528 302.768 438.367 302.619C438.208 302.467 438.129 302.286 438.129 302.075C438.129 301.867 438.208 301.688 438.367 301.539C438.528 301.388 438.721 301.312 438.946 301.312C439.171 301.312 439.362 301.388 439.521 301.539C439.682 301.688 439.762 301.867 439.762 302.075C439.762 302.286 439.682 302.467 439.521 302.619C439.362 302.768 439.171 302.842 438.946 302.842ZM440.91 309V303.545H442.377V304.497H442.434C442.533 304.159 442.7 303.903 442.934 303.73C443.169 303.555 443.439 303.467 443.744 303.467C443.82 303.467 443.902 303.472 443.989 303.482C444.077 303.491 444.154 303.504 444.22 303.521V304.863C444.149 304.842 444.051 304.823 443.925 304.806C443.8 304.79 443.685 304.781 443.581 304.781C443.358 304.781 443.159 304.83 442.984 304.927C442.811 305.022 442.674 305.154 442.572 305.325C442.473 305.495 442.423 305.692 442.423 305.914V309H440.91ZM446.515 301.727V309H445.002V301.727H446.515ZM449.282 309.103C448.934 309.103 448.624 309.043 448.352 308.922C448.079 308.799 447.864 308.618 447.705 308.379C447.549 308.137 447.471 307.836 447.471 307.477C447.471 307.174 447.527 306.919 447.638 306.713C447.749 306.507 447.901 306.341 448.093 306.216C448.284 306.09 448.502 305.996 448.746 305.932C448.992 305.868 449.25 305.823 449.52 305.797C449.837 305.764 450.093 305.733 450.287 305.705C450.481 305.674 450.622 305.629 450.71 305.57C450.797 305.51 450.841 305.423 450.841 305.307V305.286C450.841 305.061 450.77 304.887 450.628 304.763C450.488 304.64 450.289 304.579 450.031 304.579C449.759 304.579 449.543 304.639 449.382 304.76C449.221 304.878 449.114 305.027 449.062 305.207L447.663 305.094C447.734 304.762 447.874 304.476 448.082 304.234C448.29 303.991 448.559 303.804 448.888 303.673C449.219 303.541 449.603 303.474 450.039 303.474C450.342 303.474 450.632 303.51 450.909 303.581C451.188 303.652 451.435 303.762 451.651 303.911C451.869 304.06 452.04 304.252 452.166 304.487C452.291 304.719 452.354 304.997 452.354 305.321V309H450.919V308.244H450.877C450.789 308.414 450.672 308.564 450.525 308.695C450.378 308.822 450.202 308.923 449.996 308.996C449.79 309.067 449.552 309.103 449.282 309.103ZM449.715 308.059C449.938 308.059 450.134 308.015 450.305 307.928C450.475 307.838 450.609 307.717 450.706 307.565C450.803 307.414 450.852 307.242 450.852 307.05V306.472C450.804 306.502 450.739 306.531 450.656 306.557C450.576 306.58 450.485 306.603 450.383 306.624C450.281 306.643 450.179 306.661 450.078 306.678C449.976 306.692 449.883 306.705 449.801 306.717C449.623 306.743 449.468 306.784 449.335 306.841C449.203 306.898 449.1 306.975 449.026 307.072C448.953 307.166 448.916 307.285 448.916 307.427C448.916 307.633 448.991 307.79 449.14 307.899C449.292 308.006 449.483 308.059 449.715 308.059ZM457.025 306.678V303.545H458.538V309H457.086V308.009H457.029C456.906 308.329 456.701 308.586 456.415 308.78C456.131 308.974 455.784 309.071 455.374 309.071C455.01 309.071 454.689 308.988 454.412 308.822C454.135 308.657 453.918 308.421 453.762 308.116C453.608 307.81 453.53 307.445 453.528 307.018V303.545H455.04V306.749C455.043 307.071 455.129 307.325 455.3 307.512C455.47 307.699 455.698 307.793 455.985 307.793C456.167 307.793 456.338 307.751 456.496 307.668C456.655 307.583 456.783 307.458 456.88 307.292C456.979 307.126 457.028 306.921 457.025 306.678ZM461.261 305.847V309H459.748V303.545H461.19V304.508H461.254C461.375 304.191 461.577 303.94 461.861 303.755C462.145 303.568 462.49 303.474 462.895 303.474C463.273 303.474 463.604 303.557 463.885 303.723C464.167 303.889 464.386 304.125 464.542 304.433C464.699 304.739 464.777 305.103 464.777 305.527V309H463.264V305.797C463.266 305.463 463.181 305.203 463.008 305.016C462.835 304.826 462.597 304.732 462.294 304.732C462.091 304.732 461.911 304.775 461.755 304.863C461.601 304.951 461.48 305.078 461.392 305.246C461.307 305.412 461.263 305.612 461.261 305.847ZM468.433 309.107C467.875 309.107 467.394 308.988 466.992 308.751C466.592 308.512 466.284 308.181 466.068 307.757C465.855 307.333 465.749 306.846 465.749 306.294C465.749 305.735 465.856 305.245 466.072 304.824C466.29 304.4 466.599 304.07 466.999 303.833C467.399 303.594 467.875 303.474 468.426 303.474C468.902 303.474 469.319 303.561 469.676 303.734C470.034 303.906 470.317 304.149 470.525 304.462C470.733 304.774 470.848 305.141 470.869 305.562H469.442C469.402 305.29 469.295 305.071 469.122 304.906C468.952 304.737 468.728 304.653 468.451 304.653C468.217 304.653 468.012 304.717 467.837 304.845C467.664 304.971 467.529 305.154 467.432 305.396C467.335 305.637 467.286 305.929 467.286 306.273C467.286 306.621 467.334 306.917 467.428 307.161C467.526 307.404 467.662 307.59 467.837 307.718C468.012 307.846 468.217 307.91 468.451 307.91C468.624 307.91 468.779 307.874 468.916 307.803C469.056 307.732 469.171 307.629 469.261 307.494C469.353 307.357 469.414 307.192 469.442 307.001H470.869C470.846 307.417 470.732 307.784 470.529 308.102C470.327 308.416 470.049 308.663 469.694 308.84C469.339 309.018 468.919 309.107 468.433 309.107ZM473.351 305.847V309H471.838V301.727H473.308V304.508H473.372C473.495 304.186 473.694 303.934 473.969 303.751C474.243 303.567 474.588 303.474 475.002 303.474C475.381 303.474 475.711 303.557 475.993 303.723C476.277 303.886 476.497 304.122 476.653 304.43C476.812 304.735 476.89 305.101 476.888 305.527V309H475.375V305.797C475.377 305.461 475.292 305.199 475.119 305.012C474.949 304.825 474.71 304.732 474.402 304.732C474.196 304.732 474.014 304.775 473.855 304.863C473.699 304.951 473.576 305.078 473.486 305.246C473.398 305.412 473.353 305.612 473.351 305.847ZM478.963 309.092C478.728 309.092 478.527 309.009 478.359 308.844C478.193 308.676 478.11 308.474 478.11 308.24C478.11 308.008 478.193 307.809 478.359 307.643C478.527 307.478 478.728 307.395 478.963 307.395C479.19 307.395 479.389 307.478 479.559 307.643C479.73 307.809 479.815 308.008 479.815 308.24C479.815 308.396 479.775 308.54 479.694 308.67C479.616 308.798 479.513 308.901 479.385 308.979C479.257 309.054 479.116 309.092 478.963 309.092ZM478.963 305.271C478.728 305.271 478.527 305.188 478.359 305.023C478.193 304.857 478.11 304.656 478.11 304.419C478.11 304.187 478.193 303.989 478.359 303.826C478.527 303.66 478.728 303.577 478.963 303.577C479.19 303.577 479.389 303.66 479.559 303.826C479.73 303.989 479.815 304.187 479.815 304.419C479.815 304.578 479.775 304.722 479.694 304.852C479.616 304.98 479.513 305.082 479.385 305.158C479.257 305.233 479.116 305.271 478.963 305.271ZM483.645 309L486.66 303.034V302.984H483.148V301.727H488.251V303.002L485.232 309H483.645ZM491.863 309.099C491.361 309.099 490.914 309.007 490.521 308.822C490.13 308.638 489.82 308.383 489.59 308.059C489.361 307.735 489.241 307.363 489.232 306.944H490.723C490.74 307.226 490.858 307.454 491.078 307.629C491.298 307.804 491.56 307.892 491.863 307.892C492.104 307.892 492.317 307.839 492.502 307.732C492.689 307.623 492.835 307.473 492.939 307.281C493.045 307.087 493.099 306.865 493.099 306.614C493.099 306.358 493.044 306.133 492.935 305.939C492.829 305.745 492.681 305.593 492.491 305.484C492.302 305.375 492.085 305.32 491.842 305.317C491.629 305.317 491.421 305.361 491.22 305.449C491.021 305.536 490.866 305.656 490.755 305.808L489.388 305.562L489.732 301.727H494.178V302.984H491L490.812 304.806H490.854C490.982 304.626 491.175 304.477 491.433 304.359C491.691 304.24 491.98 304.181 492.3 304.181C492.738 304.181 493.128 304.284 493.472 304.49C493.815 304.696 494.086 304.979 494.285 305.339C494.484 305.696 494.582 306.108 494.58 306.575C494.582 307.065 494.468 307.5 494.239 307.881C494.011 308.26 493.693 308.558 493.283 308.776C492.876 308.992 492.403 309.099 491.863 309.099ZM496.316 309.092C496.082 309.092 495.88 309.009 495.712 308.844C495.547 308.676 495.464 308.474 495.464 308.24C495.464 308.008 495.547 307.809 495.712 307.643C495.88 307.478 496.082 307.395 496.316 307.395C496.543 307.395 496.742 307.478 496.913 307.643C497.083 307.809 497.168 308.008 497.168 308.24C497.168 308.396 497.128 308.54 497.048 308.67C496.969 308.798 496.866 308.901 496.739 308.979C496.611 309.054 496.47 309.092 496.316 309.092ZM500.955 309.16C500.344 309.157 499.818 309.007 499.378 308.709C498.94 308.411 498.603 307.978 498.366 307.413C498.132 306.847 498.016 306.166 498.018 305.371C498.018 304.578 498.135 303.902 498.369 303.343C498.606 302.784 498.944 302.359 499.382 302.068C499.822 301.775 500.346 301.628 500.955 301.628C501.563 301.628 502.086 301.775 502.524 302.068C502.965 302.362 503.303 302.788 503.54 303.347C503.777 303.903 503.894 304.578 503.892 305.371C503.892 306.169 503.773 306.85 503.536 307.416C503.302 307.982 502.966 308.414 502.528 308.712C502.09 309.011 501.566 309.16 500.955 309.16ZM500.955 307.885C501.371 307.885 501.704 307.675 501.953 307.256C502.201 306.837 502.324 306.209 502.322 305.371C502.322 304.819 502.265 304.36 502.151 303.993C502.04 303.626 501.882 303.35 501.676 303.165C501.472 302.981 501.232 302.888 500.955 302.888C500.54 302.888 500.209 303.096 499.96 303.51C499.712 303.924 499.586 304.545 499.584 305.371C499.584 305.929 499.64 306.396 499.751 306.77C499.865 307.142 500.024 307.421 500.23 307.608C500.436 307.793 500.678 307.885 500.955 307.885ZM508.969 307.636V307.253C508.969 306.962 509.03 306.694 509.153 306.45C509.279 306.204 509.46 306.008 509.697 305.861C509.936 305.712 510.227 305.637 510.57 305.637C510.918 305.637 511.211 305.71 511.447 305.857C511.687 306.004 511.866 306.201 511.987 306.447C512.11 306.691 512.172 306.959 512.172 307.253V307.636C512.172 307.928 512.11 308.196 511.987 308.442C511.864 308.686 511.683 308.882 511.444 309.028C511.205 309.178 510.914 309.252 510.57 309.252C510.222 309.252 509.93 309.178 509.693 309.028C509.456 308.882 509.277 308.686 509.153 308.442C509.03 308.196 508.969 307.928 508.969 307.636ZM510.002 307.253V307.636C510.002 307.804 510.042 307.963 510.123 308.112C510.206 308.261 510.355 308.336 510.57 308.336C510.786 308.336 510.933 308.263 511.011 308.116C511.091 307.969 511.131 307.809 511.131 307.636V307.253C511.131 307.08 511.094 306.919 511.018 306.77C510.942 306.621 510.793 306.546 510.57 306.546C510.357 306.546 510.209 306.621 510.126 306.77C510.044 306.919 510.002 307.08 510.002 307.253ZM505.237 303.474V303.091C505.237 302.797 505.299 302.529 505.425 302.285C505.55 302.039 505.731 301.842 505.968 301.695C506.207 301.549 506.496 301.475 506.835 301.475C507.185 301.475 507.478 301.549 507.715 301.695C507.952 301.842 508.132 302.039 508.255 302.285C508.378 302.529 508.44 302.797 508.44 303.091V303.474C508.44 303.768 508.377 304.037 508.251 304.281C508.128 304.524 507.947 304.72 507.708 304.866C507.471 305.011 507.18 305.083 506.835 305.083C506.489 305.083 506.196 305.01 505.957 304.863C505.721 304.714 505.541 304.518 505.418 304.277C505.297 304.033 505.237 303.766 505.237 303.474ZM506.277 303.091V303.474C506.277 303.647 506.317 303.807 506.398 303.954C506.481 304.101 506.626 304.174 506.835 304.174C507.052 304.174 507.2 304.101 507.278 303.954C507.359 303.807 507.399 303.647 507.399 303.474V303.091C507.399 302.918 507.361 302.757 507.286 302.608C507.21 302.459 507.059 302.384 506.835 302.384C506.624 302.384 506.478 302.46 506.398 302.612C506.317 302.763 506.277 302.923 506.277 303.091ZM505.705 309L510.705 301.727H511.636L506.636 309H505.705Z" fill="black"/>
<path d="M67.8857 87H66.2379L68.7486 79.7273H70.7301L73.2372 87H71.5895L69.7678 81.3892H69.7109L67.8857 87ZM67.7827 84.1413H71.6747V85.3416H67.7827V84.1413ZM75.8402 87.0888C75.4259 87.0888 75.0507 86.9822 74.7145 86.7692C74.3807 86.5537 74.1155 86.2377 73.919 85.821C73.7249 85.402 73.6278 84.8883 73.6278 84.2798C73.6278 83.6548 73.7285 83.1352 73.9297 82.7209C74.1309 82.3042 74.3984 81.9929 74.7322 81.7869C75.0684 81.5786 75.4366 81.4744 75.8366 81.4744C76.142 81.4744 76.3965 81.5265 76.6001 81.6307C76.8061 81.7325 76.9718 81.8603 77.0973 82.0142C77.2251 82.1657 77.3222 82.3149 77.3885 82.4616H77.4347V79.7273H78.9439V87H77.4524V86.1264H77.3885C77.3175 86.2779 77.2169 86.4283 77.0866 86.5774C76.9588 86.7242 76.7919 86.8461 76.5859 86.9432C76.3823 87.0402 76.1338 87.0888 75.8402 87.0888ZM76.3196 85.8849C76.5634 85.8849 76.7694 85.8187 76.9375 85.6861C77.108 85.5511 77.2382 85.3629 77.3281 85.1214C77.4205 84.88 77.4666 84.5971 77.4666 84.2727C77.4666 83.9484 77.4216 83.6667 77.3317 83.4276C77.2417 83.1884 77.1115 83.0038 76.9411 82.8736C76.7706 82.7434 76.5634 82.6783 76.3196 82.6783C76.071 82.6783 75.8615 82.7457 75.6911 82.8807C75.5206 83.0156 75.3916 83.2027 75.304 83.4418C75.2164 83.6809 75.1726 83.9579 75.1726 84.2727C75.1726 84.59 75.2164 84.8705 75.304 85.1143C75.3939 85.3558 75.523 85.5452 75.6911 85.6825C75.8615 85.8175 76.071 85.8849 76.3196 85.8849ZM82.1976 87.0888C81.7833 87.0888 81.4081 86.9822 81.0719 86.7692C80.7381 86.5537 80.473 86.2377 80.2765 85.821C80.0823 85.402 79.9853 84.8883 79.9853 84.2798C79.9853 83.6548 80.0859 83.1352 80.2871 82.7209C80.4883 82.3042 80.7559 81.9929 81.0897 81.7869C81.4258 81.5786 81.794 81.4744 82.1941 81.4744C82.4995 81.4744 82.754 81.5265 82.9576 81.6307C83.1635 81.7325 83.3292 81.8603 83.4547 82.0142C83.5826 82.1657 83.6796 82.3149 83.7459 82.4616H83.7921V79.7273H85.3013V87H83.8098V86.1264H83.7459C83.6749 86.2779 83.5743 86.4283 83.4441 86.5774C83.3162 86.7242 83.1493 86.8461 82.9434 86.9432C82.7398 87.0402 82.4912 87.0888 82.1976 87.0888ZM82.677 85.8849C82.9209 85.8849 83.1268 85.8187 83.2949 85.6861C83.4654 85.5511 83.5956 85.3629 83.6855 85.1214C83.7779 84.88 83.824 84.5971 83.824 84.2727C83.824 83.9484 83.7791 83.6667 83.6891 83.4276C83.5991 83.1884 83.4689 83.0038 83.2985 82.8736C83.128 82.7434 82.9209 82.6783 82.677 82.6783C82.4284 82.6783 82.2189 82.7457 82.0485 82.8807C81.878 83.0156 81.749 83.2027 81.6614 83.4418C81.5738 83.6809 81.53 83.9579 81.53 84.2727C81.53 84.59 81.5738 84.8705 81.6614 85.1143C81.7514 85.3558 81.8804 85.5452 82.0485 85.6825C82.2189 85.8175 82.4284 85.8849 82.677 85.8849ZM88.888 87V79.7273H90.4256V85.7322H93.5435V87H88.888ZM94.5618 87V79.7273H97.4311C97.9827 79.7273 98.4527 79.8326 98.8409 80.0433C99.2292 80.2517 99.5251 80.5417 99.7287 80.9134C99.9347 81.2827 100.038 81.7088 100.038 82.1918C100.038 82.6747 99.9335 83.1009 99.7251 83.4702C99.5168 83.8395 99.215 84.1271 98.8196 84.3331C98.4266 84.5391 97.9508 84.642 97.392 84.642H95.5632V83.4098H97.1435C97.4394 83.4098 97.6832 83.3589 97.875 83.2571C98.0691 83.1529 98.2135 83.0097 98.3082 82.8274C98.4053 82.6428 98.4538 82.4309 98.4538 82.1918C98.4538 81.9503 98.4053 81.7396 98.3082 81.5597C98.2135 81.3774 98.0691 81.2365 97.875 81.1371C97.6809 81.0353 97.4347 80.9844 97.1364 80.9844H96.0994V87H94.5618ZM101.892 86.1548C101.658 86.1548 101.457 86.072 101.289 85.9062C101.123 85.7405 101.04 85.5393 101.04 85.3026C101.04 85.0705 101.123 84.8717 101.289 84.706C101.457 84.5402 101.658 84.4574 101.892 84.4574C102.119 84.4574 102.318 84.5402 102.489 84.706C102.659 84.8717 102.744 85.0705 102.744 85.3026C102.744 85.4588 102.704 85.602 102.624 85.7322C102.546 85.8601 102.443 85.9631 102.315 86.0412C102.187 86.117 102.046 86.1548 101.892 86.1548ZM101.892 82.5859C101.658 82.5859 101.457 82.5031 101.289 82.3374C101.123 82.1716 101.04 81.9704 101.04 81.7337C101.04 81.5017 101.123 81.304 101.289 81.1406C101.457 80.9749 101.658 80.892 101.892 80.892C102.119 80.892 102.318 80.9749 102.489 81.1406C102.659 81.304 102.744 81.5017 102.744 81.7337C102.744 81.8923 102.704 82.0367 102.624 82.1669C102.546 82.2947 102.443 82.3965 102.315 82.4723C102.187 82.5481 102.046 82.5859 101.892 82.5859ZM106.287 87V85.892L108.876 83.495C109.096 83.282 109.28 83.0902 109.43 82.9197C109.581 82.7493 109.696 82.5824 109.774 82.419C109.852 82.2533 109.891 82.0746 109.891 81.8828C109.891 81.6697 109.843 81.4863 109.746 81.3324C109.648 81.1761 109.516 81.0566 109.348 80.9737C109.18 80.8885 108.989 80.8459 108.776 80.8459C108.554 80.8459 108.359 80.8909 108.194 80.9808C108.028 81.0708 107.9 81.1998 107.81 81.3679C107.72 81.536 107.675 81.736 107.675 81.968H106.216C106.216 81.4922 106.323 81.0791 106.539 80.7287C106.754 80.3783 107.056 80.1072 107.444 79.9155C107.833 79.7237 108.28 79.6278 108.787 79.6278C109.308 79.6278 109.761 79.7202 110.147 79.9048C110.535 80.0871 110.837 80.3404 111.052 80.6648C111.268 80.9891 111.376 81.3608 111.376 81.7798C111.376 82.0545 111.321 82.3255 111.212 82.593C111.106 82.8606 110.915 83.1577 110.64 83.4844C110.366 83.8087 109.979 84.1982 109.479 84.6527L108.417 85.6932V85.7429H111.471V87H106.287ZM115.437 87.1598C114.826 87.1574 114.301 87.0071 113.86 86.7088C113.422 86.4105 113.085 85.9785 112.848 85.4126C112.614 84.8468 112.498 84.1662 112.5 83.3707C112.5 82.5777 112.618 81.9018 112.852 81.343C113.089 80.7843 113.426 80.3594 113.864 80.0682C114.304 79.7746 114.829 79.6278 115.437 79.6278C116.046 79.6278 116.569 79.7746 117.007 80.0682C117.447 80.3617 117.786 80.7879 118.022 81.3466C118.259 81.9029 118.376 82.5777 118.374 83.3707C118.374 84.1686 118.256 84.8504 118.019 85.4162C117.784 85.982 117.448 86.4141 117.01 86.7124C116.572 87.0107 116.048 87.1598 115.437 87.1598ZM115.437 85.8849C115.854 85.8849 116.186 85.6754 116.435 85.2564C116.684 84.8374 116.807 84.2088 116.804 83.3707C116.804 82.8191 116.748 82.3598 116.634 81.9929C116.523 81.6259 116.364 81.3501 116.158 81.1655C115.954 80.9808 115.714 80.8885 115.437 80.8885C115.023 80.8885 114.691 81.0956 114.443 81.5099C114.194 81.9242 114.069 82.5445 114.066 83.3707C114.066 83.9295 114.122 84.3958 114.233 84.7699C114.347 85.1416 114.507 85.4209 114.713 85.608C114.919 85.7926 115.16 85.8849 115.437 85.8849ZM120.076 87.0923C119.841 87.0923 119.64 87.0095 119.472 86.8438C119.306 86.6757 119.224 86.4744 119.224 86.2401C119.224 86.008 119.306 85.8092 119.472 85.6435C119.64 85.4777 119.841 85.3949 120.076 85.3949C120.303 85.3949 120.502 85.4777 120.672 85.6435C120.843 85.8092 120.928 86.008 120.928 86.2401C120.928 86.3963 120.888 86.5395 120.807 86.6697C120.729 86.7976 120.626 86.9006 120.498 86.9787C120.371 87.0545 120.23 87.0923 120.076 87.0923ZM124.714 87.1598C124.104 87.1574 123.578 87.0071 123.138 86.7088C122.7 86.4105 122.362 85.9785 122.126 85.4126C121.891 84.8468 121.775 84.1662 121.778 83.3707C121.778 82.5777 121.895 81.9018 122.129 81.343C122.366 80.7843 122.703 80.3594 123.141 80.0682C123.582 79.7746 124.106 79.6278 124.714 79.6278C125.323 79.6278 125.846 79.7746 126.284 80.0682C126.724 80.3617 127.063 80.7879 127.3 81.3466C127.536 81.9029 127.654 82.5777 127.651 83.3707C127.651 84.1686 127.533 84.8504 127.296 85.4162C127.062 85.982 126.726 86.4141 126.288 86.7124C125.85 87.0107 125.325 87.1598 124.714 87.1598ZM124.714 85.8849C125.131 85.8849 125.464 85.6754 125.712 85.2564C125.961 84.8374 126.084 84.2088 126.082 83.3707C126.082 82.8191 126.025 82.3598 125.911 81.9929C125.8 81.6259 125.641 81.3501 125.435 81.1655C125.232 80.9808 124.991 80.8885 124.714 80.8885C124.3 80.8885 123.969 81.0956 123.72 81.5099C123.472 81.9242 123.346 82.5445 123.344 83.3707C123.344 83.9295 123.399 84.3958 123.511 84.7699C123.624 85.1416 123.784 85.4209 123.99 85.608C124.196 85.7926 124.438 85.8849 124.714 85.8849ZM132.729 85.6364V85.2528C132.729 84.9616 132.79 84.6941 132.913 84.4503C133.039 84.2041 133.22 84.0076 133.456 83.8608C133.696 83.7116 133.987 83.6371 134.33 83.6371C134.678 83.6371 134.97 83.7105 135.207 83.8572C135.446 84.004 135.626 84.2005 135.747 84.4467C135.87 84.6906 135.932 84.9593 135.932 85.2528V85.6364C135.932 85.9276 135.87 86.1963 135.747 86.4425C135.624 86.6863 135.443 86.8816 135.204 87.0284C134.965 87.1776 134.673 87.2521 134.33 87.2521C133.982 87.2521 133.69 87.1776 133.453 87.0284C133.216 86.8816 133.036 86.6863 132.913 86.4425C132.79 86.1963 132.729 85.9276 132.729 85.6364ZM133.762 85.2528V85.6364C133.762 85.8045 133.802 85.9631 133.883 86.1122C133.965 86.2614 134.115 86.3359 134.33 86.3359C134.546 86.3359 134.692 86.2625 134.77 86.1158C134.851 85.969 134.891 85.8092 134.891 85.6364V85.2528C134.891 85.08 134.853 84.919 134.778 84.7699C134.702 84.6207 134.553 84.5462 134.33 84.5462C134.117 84.5462 133.969 84.6207 133.886 84.7699C133.803 84.919 133.762 85.08 133.762 85.2528ZM128.996 81.4744V81.0909C128.996 80.7973 129.059 80.5286 129.184 80.2848C129.31 80.0386 129.491 79.8421 129.728 79.6953C129.967 79.5485 130.256 79.4751 130.594 79.4751C130.945 79.4751 131.238 79.5485 131.475 79.6953C131.712 79.8421 131.892 80.0386 132.015 80.2848C132.138 80.5286 132.199 80.7973 132.199 81.0909V81.4744C132.199 81.768 132.137 82.0367 132.011 82.2805C131.888 82.5244 131.707 82.7197 131.468 82.8665C131.231 83.0109 130.94 83.0831 130.594 83.0831C130.249 83.0831 129.956 83.0097 129.717 82.8629C129.48 82.7138 129.3 82.5185 129.177 82.277C129.057 82.0331 128.996 81.7656 128.996 81.4744ZM130.037 81.0909V81.4744C130.037 81.6473 130.077 81.8071 130.157 81.9538C130.24 82.1006 130.386 82.174 130.594 82.174C130.812 82.174 130.96 82.1006 131.038 81.9538C131.119 81.8071 131.159 81.6473 131.159 81.4744V81.0909C131.159 80.9181 131.121 80.7571 131.045 80.608C130.97 80.4588 130.819 80.3842 130.594 80.3842C130.384 80.3842 130.238 80.46 130.157 80.6115C130.077 80.763 130.037 80.9228 130.037 81.0909ZM129.465 87L134.465 79.7273H135.395L130.395 87H129.465Z" fill="black"/>
<path d="M83.2102 58H80.6321V50.7273H83.2315C83.9631 50.7273 84.5928 50.8729 85.1207 51.1641C85.6487 51.4529 86.0547 51.8684 86.3388 52.4105C86.6252 52.9527 86.7685 53.6013 86.7685 54.3565C86.7685 55.1141 86.6252 55.7652 86.3388 56.3097C86.0547 56.8542 85.6463 57.272 85.1136 57.5632C84.5833 57.8544 83.9489 58 83.2102 58ZM82.1697 56.6825H83.1463C83.6009 56.6825 83.9832 56.602 84.2933 56.4411C84.6058 56.2777 84.8402 56.0256 84.9964 55.6847C85.1551 55.3414 85.2344 54.8987 85.2344 54.3565C85.2344 53.8191 85.1551 53.38 84.9964 53.0391C84.8402 52.6982 84.607 52.4472 84.2969 52.2862C83.9867 52.1252 83.6044 52.0447 83.1499 52.0447H82.1697V56.6825ZM89.1433 52.5455L90.1447 54.4524L91.171 52.5455H92.7228L91.1426 55.2727L92.7654 58H91.2207L90.1447 56.1143L89.0865 58H87.524L89.1433 55.2727L87.5808 52.5455H89.1433ZM95.9641 50.7273H97.8604L99.8633 55.6136H99.9485L101.951 50.7273H103.848V58H102.356V53.2663H102.296L100.414 57.9645H99.3981L97.516 53.2486H97.4556V58H95.9641V50.7273ZM105.086 58V52.5455H106.599V58H105.086ZM105.846 51.8423C105.621 51.8423 105.428 51.7678 105.267 51.6186C105.109 51.4671 105.029 51.286 105.029 51.0753C105.029 50.867 105.109 50.6882 105.267 50.5391C105.428 50.3875 105.621 50.3118 105.846 50.3118C106.071 50.3118 106.263 50.3875 106.421 50.5391C106.582 50.6882 106.663 50.867 106.663 51.0753C106.663 51.286 106.582 51.4671 106.421 51.6186C106.263 51.7678 106.071 51.8423 105.846 51.8423ZM109.324 54.8466V58H107.811V52.5455H109.252V53.5078H109.316C109.437 53.1906 109.64 52.9396 109.924 52.755C110.208 52.5679 110.552 52.4744 110.957 52.4744C111.336 52.4744 111.666 52.5573 111.948 52.723C112.23 52.8887 112.449 53.1255 112.605 53.4332C112.761 53.7386 112.839 54.1032 112.839 54.527V58H111.326V54.7969C111.329 54.4631 111.243 54.2027 111.071 54.0156C110.898 53.8262 110.66 53.7315 110.357 53.7315C110.153 53.7315 109.973 53.7753 109.817 53.8629C109.663 53.9505 109.542 54.0784 109.455 54.2464C109.37 54.4122 109.326 54.6122 109.324 54.8466ZM116.933 52.5455V53.6818H113.648V52.5455H116.933ZM114.394 51.2386H115.906V56.3239C115.906 56.4635 115.928 56.5724 115.97 56.6506C116.013 56.7263 116.072 56.7796 116.148 56.8104C116.226 56.8411 116.316 56.8565 116.418 56.8565C116.489 56.8565 116.56 56.8506 116.631 56.8388C116.702 56.8246 116.756 56.8139 116.794 56.8068L117.032 57.9325C116.956 57.9562 116.85 57.9834 116.713 58.0142C116.575 58.0473 116.408 58.0675 116.212 58.0746C115.847 58.0888 115.528 58.0402 115.253 57.929C114.981 57.8177 114.769 57.6449 114.617 57.4105C114.466 57.1761 114.391 56.8802 114.394 56.5227V51.2386ZM123.166 52.5455V53.6818H119.799V52.5455H123.166ZM120.57 58V52.1513C120.57 51.7559 120.647 51.428 120.801 51.1676C120.957 50.9072 121.17 50.7119 121.44 50.5817C121.71 50.4515 122.016 50.3864 122.36 50.3864C122.592 50.3864 122.804 50.4041 122.995 50.4396C123.19 50.4751 123.334 50.5071 123.429 50.5355L123.159 51.6719C123.1 51.6529 123.026 51.6352 122.939 51.6186C122.853 51.602 122.766 51.5938 122.676 51.5938C122.453 51.5938 122.298 51.6458 122.211 51.75C122.123 51.8518 122.079 51.995 122.079 52.1797V58H120.57ZM126.381 58.1065C125.819 58.1065 125.336 57.9929 124.932 57.7656C124.529 57.536 124.219 57.2116 124.001 56.7926C123.783 56.3712 123.675 55.8729 123.675 55.2976C123.675 54.7365 123.783 54.2441 124.001 53.8203C124.219 53.3965 124.526 53.0663 124.921 52.8295C125.319 52.5928 125.785 52.4744 126.32 52.4744C126.68 52.4744 127.015 52.5324 127.325 52.6484C127.638 52.7621 127.91 52.9337 128.142 53.1634C128.376 53.393 128.559 53.6818 128.689 54.0298C128.819 54.3755 128.884 54.7803 128.884 55.2443V55.6598H124.278V54.7223H127.46C127.46 54.5045 127.413 54.3116 127.318 54.1435C127.223 53.9754 127.092 53.844 126.924 53.7493C126.758 53.6522 126.565 53.6037 126.345 53.6037C126.115 53.6037 125.912 53.657 125.734 53.7635C125.559 53.8677 125.422 54.0085 125.322 54.1861C125.223 54.3613 125.172 54.5566 125.17 54.772V55.6634C125.17 55.9332 125.219 56.1664 125.319 56.3629C125.421 56.5594 125.564 56.7109 125.748 56.8175C125.933 56.924 126.152 56.9773 126.405 56.9773C126.573 56.9773 126.727 56.9536 126.867 56.9062C127.007 56.8589 127.126 56.7879 127.226 56.6932C127.325 56.5985 127.401 56.4825 127.453 56.3452L128.852 56.4375C128.781 56.7737 128.635 57.0672 128.415 57.3182C128.198 57.5668 127.916 57.7609 127.57 57.9006C127.227 58.0379 126.83 58.1065 126.381 58.1065ZM132.357 58.1065C131.796 58.1065 131.313 57.9929 130.908 57.7656C130.506 57.536 130.196 57.2116 129.978 56.7926C129.76 56.3712 129.651 55.8729 129.651 55.2976C129.651 54.7365 129.76 54.2441 129.978 53.8203C130.196 53.3965 130.502 53.0663 130.898 52.8295C131.295 52.5928 131.762 52.4744 132.297 52.4744C132.657 52.4744 132.992 52.5324 133.302 52.6484C133.614 52.7621 133.886 52.9337 134.118 53.1634C134.353 53.393 134.535 53.6818 134.665 54.0298C134.796 54.3755 134.861 54.7803 134.861 55.2443V55.6598H130.255V54.7223H133.437C133.437 54.5045 133.389 54.3116 133.295 54.1435C133.2 53.9754 133.068 53.844 132.9 53.7493C132.735 53.6522 132.542 53.6037 132.322 53.6037C132.092 53.6037 131.888 53.657 131.711 53.7635C131.536 53.8677 131.398 54.0085 131.299 54.1861C131.199 54.3613 131.148 54.5566 131.146 54.772V55.6634C131.146 55.9332 131.196 56.1664 131.295 56.3629C131.397 56.5594 131.54 56.7109 131.725 56.8175C131.91 56.924 132.129 56.9773 132.382 56.9773C132.55 56.9773 132.704 56.9536 132.844 56.9062C132.983 56.8589 133.103 56.7879 133.202 56.6932C133.302 56.5985 133.377 56.4825 133.43 56.3452L134.829 56.4375C134.758 56.7737 134.612 57.0672 134.392 57.3182C134.174 57.5668 133.892 57.7609 133.547 57.9006C133.203 58.0379 132.807 58.1065 132.357 58.1065ZM136.732 58.0923C136.498 58.0923 136.296 58.0095 136.128 57.8438C135.963 57.6757 135.88 57.4744 135.88 57.2401C135.88 57.008 135.963 56.8092 136.128 56.6435C136.296 56.4777 136.498 56.3949 136.732 56.3949C136.959 56.3949 137.158 56.4777 137.329 56.6435C137.499 56.8092 137.584 57.008 137.584 57.2401C137.584 57.3963 137.544 57.5395 137.464 57.6697C137.385 57.7976 137.282 57.9006 137.155 57.9787C137.027 58.0545 136.886 58.0923 136.732 58.0923ZM136.732 54.2713C136.498 54.2713 136.296 54.1884 136.128 54.0227C135.963 53.857 135.88 53.6558 135.88 53.419C135.88 53.187 135.963 52.9893 136.128 52.826C136.296 52.6603 136.498 52.5774 136.732 52.5774C136.959 52.5774 137.158 52.6603 137.329 52.826C137.499 52.9893 137.584 53.187 137.584 53.419C137.584 53.5777 137.544 53.7221 137.464 53.8523C137.385 53.9801 137.282 54.0819 137.155 54.1577C137.027 54.2334 136.886 54.2713 136.732 54.2713ZM144.291 50.7273V58H142.753V52.1868H142.71L141.045 53.2308V51.8672L142.845 50.7273H144.291ZM146.527 58.0923C146.293 58.0923 146.091 58.0095 145.923 57.8438C145.758 57.6757 145.675 57.4744 145.675 57.2401C145.675 57.008 145.758 56.8092 145.923 56.6435C146.091 56.4777 146.293 56.3949 146.527 56.3949C146.754 56.3949 146.953 56.4777 147.124 56.6435C147.294 56.8092 147.379 57.008 147.379 57.2401C147.379 57.3963 147.339 57.5395 147.259 57.6697C147.18 57.7976 147.077 57.9006 146.95 57.9787C146.822 58.0545 146.681 58.0923 146.527 58.0923ZM151.166 58.1598C150.555 58.1574 150.029 58.0071 149.589 57.7088C149.151 57.4105 148.814 56.9785 148.577 56.4126C148.343 55.8468 148.227 55.1662 148.229 54.3707C148.229 53.5777 148.346 52.9018 148.58 52.343C148.817 51.7843 149.155 51.3594 149.593 51.0682C150.033 50.7746 150.557 50.6278 151.166 50.6278C151.774 50.6278 152.297 50.7746 152.735 51.0682C153.176 51.3617 153.514 51.7879 153.751 52.3466C153.988 52.9029 154.105 53.5777 154.102 54.3707C154.102 55.1686 153.984 55.8504 153.747 56.4162C153.513 56.982 153.177 57.4141 152.739 57.7124C152.301 58.0107 151.776 58.1598 151.166 58.1598ZM151.166 56.8849C151.582 56.8849 151.915 56.6754 152.164 56.2564C152.412 55.8374 152.535 55.2088 152.533 54.3707C152.533 53.8191 152.476 53.3598 152.362 52.9929C152.251 52.6259 152.093 52.3501 151.887 52.1655C151.683 51.9808 151.443 51.8885 151.166 51.8885C150.751 51.8885 150.42 52.0956 150.171 52.5099C149.923 52.9242 149.797 53.5445 149.795 54.3707C149.795 54.9295 149.851 55.3958 149.962 55.7699C150.075 56.1416 150.235 56.4209 150.441 56.608C150.647 56.7926 150.889 56.8849 151.166 56.8849ZM159.18 56.6364V56.2528C159.18 55.9616 159.241 55.6941 159.364 55.4503C159.49 55.2041 159.671 55.0076 159.908 54.8608C160.147 54.7116 160.438 54.6371 160.781 54.6371C161.129 54.6371 161.422 54.7105 161.658 54.8572C161.897 55.004 162.077 55.2005 162.198 55.4467C162.321 55.6906 162.383 55.9593 162.383 56.2528V56.6364C162.383 56.9276 162.321 57.1963 162.198 57.4425C162.075 57.6863 161.894 57.8816 161.655 58.0284C161.416 58.1776 161.125 58.2521 160.781 58.2521C160.433 58.2521 160.141 58.1776 159.904 58.0284C159.667 57.8816 159.487 57.6863 159.364 57.4425C159.241 57.1963 159.18 56.9276 159.18 56.6364ZM160.213 56.2528V56.6364C160.213 56.8045 160.253 56.9631 160.334 57.1122C160.417 57.2614 160.566 57.3359 160.781 57.3359C160.997 57.3359 161.143 57.2625 161.222 57.1158C161.302 56.969 161.342 56.8092 161.342 56.6364V56.2528C161.342 56.08 161.304 55.919 161.229 55.7699C161.153 55.6207 161.004 55.5462 160.781 55.5462C160.568 55.5462 160.42 55.6207 160.337 55.7699C160.254 55.919 160.213 56.08 160.213 56.2528ZM155.447 52.4744V52.0909C155.447 51.7973 155.51 51.5286 155.636 51.2848C155.761 51.0386 155.942 50.8421 156.179 50.6953C156.418 50.5485 156.707 50.4751 157.045 50.4751C157.396 50.4751 157.689 50.5485 157.926 50.6953C158.163 50.8421 158.343 51.0386 158.466 51.2848C158.589 51.5286 158.651 51.7973 158.651 52.0909V52.4744C158.651 52.768 158.588 53.0367 158.462 53.2805C158.339 53.5244 158.158 53.7197 157.919 53.8665C157.682 54.0109 157.391 54.0831 157.045 54.0831C156.7 54.0831 156.407 54.0097 156.168 53.8629C155.932 53.7138 155.752 53.5185 155.629 53.277C155.508 53.0331 155.447 52.7656 155.447 52.4744ZM156.488 52.0909V52.4744C156.488 52.6473 156.528 52.8071 156.609 52.9538C156.692 53.1006 156.837 53.174 157.045 53.174C157.263 53.174 157.411 53.1006 157.489 52.9538C157.57 52.8071 157.61 52.6473 157.61 52.4744V52.0909C157.61 51.9181 157.572 51.7571 157.496 51.608C157.421 51.4588 157.27 51.3842 157.045 51.3842C156.835 51.3842 156.689 51.46 156.609 51.6115C156.528 51.763 156.488 51.9228 156.488 52.0909ZM155.916 58L160.916 50.7273H161.847L156.847 58H155.916Z" fill="black"/>
<path d="M98.2102 37H95.6321V29.7273H98.2315C98.9631 29.7273 99.5928 29.8729 100.121 30.1641C100.649 30.4529 101.055 30.8684 101.339 31.4105C101.625 31.9527 101.768 32.6013 101.768 33.3565C101.768 34.1141 101.625 34.7652 101.339 35.3097C101.055 35.8542 100.646 36.272 100.114 36.5632C99.5833 36.8544 98.9489 37 98.2102 37ZM97.1697 35.6825H98.1463C98.6009 35.6825 98.9832 35.602 99.2933 35.4411C99.6058 35.2777 99.8402 35.0256 99.9964 34.6847C100.155 34.3414 100.234 33.8987 100.234 33.3565C100.234 32.8191 100.155 32.38 99.9964 32.0391C99.8402 31.6982 99.607 31.4472 99.2969 31.2862C98.9867 31.1252 98.6044 31.0447 98.1499 31.0447H97.1697V35.6825ZM104.143 31.5455L105.145 33.4524L106.171 31.5455H107.723L106.143 34.2727L107.765 37H106.221L105.145 35.1143L104.086 37H102.524L104.143 34.2727L102.581 31.5455H104.143ZM110.964 37V29.7273H113.833C114.385 29.7273 114.855 29.8326 115.243 30.0433C115.632 30.2517 115.927 30.5417 116.131 30.9134C116.337 31.2827 116.44 31.7088 116.44 32.1918C116.44 32.6747 116.336 33.1009 116.127 33.4702C115.919 33.8395 115.617 34.1271 115.222 34.3331C114.829 34.5391 114.353 34.642 113.794 34.642H111.966V33.4098H113.546C113.842 33.4098 114.086 33.3589 114.277 33.2571C114.471 33.1529 114.616 33.0097 114.711 32.8274C114.808 32.6428 114.856 32.4309 114.856 32.1918C114.856 31.9503 114.808 31.7396 114.711 31.5597C114.616 31.3774 114.471 31.2365 114.277 31.1371C114.083 31.0353 113.837 30.9844 113.539 30.9844H112.502V37H110.964ZM117.41 37V31.5455H118.877V32.4972H118.934C119.033 32.1586 119.2 31.9029 119.434 31.7301C119.669 31.5549 119.939 31.4673 120.244 31.4673C120.32 31.4673 120.402 31.4721 120.489 31.4815C120.577 31.491 120.654 31.504 120.72 31.5206V32.8629C120.649 32.8416 120.551 32.8227 120.425 32.8061C120.3 32.7895 120.185 32.7812 120.081 32.7812C119.858 32.7812 119.659 32.8298 119.484 32.9268C119.311 33.0215 119.174 33.1541 119.072 33.3246C118.973 33.495 118.923 33.6915 118.923 33.9141V37H117.41ZM123.734 37.1065C123.173 37.1065 122.69 36.9929 122.285 36.7656C121.883 36.536 121.573 36.2116 121.355 35.7926C121.137 35.3712 121.028 34.8729 121.028 34.2976C121.028 33.7365 121.137 33.2441 121.355 32.8203C121.573 32.3965 121.879 32.0663 122.275 31.8295C122.672 31.5928 123.139 31.4744 123.674 31.4744C124.033 31.4744 124.368 31.5324 124.679 31.6484C124.991 31.7621 125.263 31.9337 125.495 32.1634C125.73 32.393 125.912 32.6818 126.042 33.0298C126.172 33.3755 126.238 33.7803 126.238 34.2443V34.6598H121.632V33.7223H124.814C124.814 33.5045 124.766 33.3116 124.672 33.1435C124.577 32.9754 124.445 32.844 124.277 32.7493C124.112 32.6522 123.919 32.6037 123.699 32.6037C123.469 32.6037 123.265 32.657 123.088 32.7635C122.913 32.8677 122.775 33.0085 122.676 33.1861C122.576 33.3613 122.525 33.5566 122.523 33.772V34.6634C122.523 34.9332 122.573 35.1664 122.672 35.3629C122.774 35.5594 122.917 35.7109 123.102 35.8175C123.287 35.924 123.506 35.9773 123.759 35.9773C123.927 35.9773 124.081 35.9536 124.221 35.9062C124.36 35.8589 124.48 35.7879 124.579 35.6932C124.679 35.5985 124.754 35.4825 124.806 35.3452L126.206 35.4375C126.135 35.7737 125.989 36.0672 125.769 36.3182C125.551 36.5668 125.269 36.7609 124.924 36.9006C124.58 37.0379 124.184 37.1065 123.734 37.1065ZM131.763 33.1009L130.378 33.1861C130.355 33.0677 130.304 32.9612 130.225 32.8665C130.147 32.7694 130.044 32.6925 129.917 32.6357C129.791 32.5765 129.641 32.5469 129.466 32.5469C129.231 32.5469 129.033 32.5966 128.873 32.696C128.712 32.7931 128.631 32.9233 128.631 33.0866C128.631 33.2169 128.683 33.3269 128.787 33.4169C128.891 33.5069 129.07 33.5791 129.324 33.6335L130.311 33.8324C130.841 33.9413 131.236 34.1165 131.497 34.358C131.757 34.5994 131.887 34.9167 131.887 35.3097C131.887 35.6671 131.782 35.9808 131.571 36.2507C131.363 36.5206 131.077 36.7313 130.712 36.8828C130.35 37.032 129.932 37.1065 129.458 37.1065C128.736 37.1065 128.161 36.9562 127.733 36.6555C127.306 36.3525 127.057 35.9406 126.983 35.4197L128.471 35.3416C128.516 35.5618 128.625 35.7299 128.798 35.8459C128.971 35.9595 129.192 36.0163 129.462 36.0163C129.727 36.0163 129.94 35.9654 130.101 35.8636C130.265 35.7595 130.347 35.6257 130.35 35.4624C130.347 35.325 130.289 35.2126 130.176 35.125C130.062 35.035 129.887 34.9664 129.65 34.919L128.706 34.7308C128.173 34.6243 127.776 34.4396 127.516 34.1768C127.258 33.9141 127.129 33.5791 127.129 33.1719C127.129 32.8215 127.224 32.5196 127.413 32.2663C127.605 32.013 127.873 31.8177 128.219 31.6804C128.567 31.5431 128.974 31.4744 129.441 31.4744C130.13 31.4744 130.672 31.62 131.067 31.9112C131.465 32.2024 131.697 32.599 131.763 33.1009ZM134.395 37.103C134.047 37.103 133.737 37.0426 133.465 36.9219C133.193 36.7988 132.977 36.6177 132.819 36.3786C132.662 36.1371 132.584 35.8364 132.584 35.4766C132.584 35.1735 132.64 34.919 132.751 34.7131C132.863 34.5071 133.014 34.3414 133.206 34.2159C133.398 34.0904 133.615 33.9957 133.859 33.9318C134.105 33.8679 134.363 33.8229 134.633 33.7969C134.951 33.7637 135.206 33.733 135.4 33.7045C135.595 33.6738 135.735 33.6288 135.823 33.5696C135.911 33.5104 135.954 33.4228 135.954 33.3068V33.2855C135.954 33.0606 135.883 32.8866 135.741 32.7635C135.602 32.6404 135.403 32.5788 135.145 32.5788C134.872 32.5788 134.656 32.6392 134.495 32.7599C134.334 32.8783 134.227 33.0275 134.175 33.2074L132.776 33.0938C132.847 32.7623 132.987 32.4759 133.195 32.2344C133.403 31.9905 133.672 31.8035 134.001 31.6733C134.333 31.5407 134.716 31.4744 135.152 31.4744C135.455 31.4744 135.745 31.5099 136.022 31.581C136.301 31.652 136.549 31.7621 136.764 31.9112C136.982 32.0604 137.153 32.2521 137.279 32.4865C137.404 32.7185 137.467 32.9967 137.467 33.321V37H136.032V36.2436H135.99C135.902 36.4141 135.785 36.5644 135.638 36.6946C135.492 36.8224 135.315 36.9231 135.109 36.9964C134.903 37.0675 134.665 37.103 134.395 37.103ZM134.829 36.0589C135.051 36.0589 135.248 36.0152 135.418 35.9276C135.589 35.8376 135.722 35.7169 135.819 35.5653C135.916 35.4138 135.965 35.2422 135.965 35.0504V34.4716C135.918 34.5024 135.853 34.5308 135.77 34.5568C135.689 34.5805 135.598 34.603 135.496 34.6243C135.394 34.6432 135.293 34.661 135.191 34.6776C135.089 34.6918 134.997 34.7048 134.914 34.7166C134.736 34.7427 134.581 34.7841 134.449 34.8409C134.316 34.8977 134.213 34.9747 134.14 35.0717C134.066 35.1664 134.03 35.2848 134.03 35.4268C134.03 35.6328 134.104 35.7902 134.253 35.8991C134.405 36.0057 134.597 36.0589 134.829 36.0589ZM140.154 29.7273V37H138.641V29.7273H140.154ZM143.851 37.1065C143.29 37.1065 142.807 36.9929 142.402 36.7656C142 36.536 141.69 36.2116 141.472 35.7926C141.254 35.3712 141.145 34.8729 141.145 34.2976C141.145 33.7365 141.254 33.2441 141.472 32.8203C141.69 32.3965 141.996 32.0663 142.392 31.8295C142.789 31.5928 143.256 31.4744 143.791 31.4744C144.151 31.4744 144.486 31.5324 144.796 31.6484C145.108 31.7621 145.381 31.9337 145.613 32.1634C145.847 32.393 146.029 32.6818 146.159 33.0298C146.29 33.3755 146.355 33.7803 146.355 34.2443V34.6598H141.749V33.7223H144.931C144.931 33.5045 144.883 33.3116 144.789 33.1435C144.694 32.9754 144.563 32.844 144.395 32.7493C144.229 32.6522 144.036 32.6037 143.816 32.6037C143.586 32.6037 143.382 32.657 143.205 32.7635C143.03 32.8677 142.892 33.0085 142.793 33.1861C142.694 33.3613 142.643 33.5566 142.64 33.772V34.6634C142.64 34.9332 142.69 35.1664 142.789 35.3629C142.891 35.5594 143.034 35.7109 143.219 35.8175C143.404 35.924 143.623 35.9773 143.876 35.9773C144.044 35.9773 144.198 35.9536 144.338 35.9062C144.477 35.8589 144.597 35.7879 144.696 35.6932C144.796 35.5985 144.872 35.4825 144.924 35.3452L146.323 35.4375C146.252 35.7737 146.106 36.0672 145.886 36.3182C145.668 36.5668 145.386 36.7609 145.041 36.9006C144.698 37.0379 144.301 37.1065 143.851 37.1065ZM152.59 31.5455V32.6818H149.223V31.5455H152.59ZM149.994 37V31.1513C149.994 30.7559 150.071 30.428 150.225 30.1676C150.381 29.9072 150.594 29.7119 150.864 29.5817C151.134 29.4515 151.44 29.3864 151.784 29.3864C152.016 29.3864 152.227 29.4041 152.419 29.4396C152.613 29.4751 152.758 29.5071 152.852 29.5355L152.583 30.6719C152.523 30.6529 152.45 30.6352 152.362 30.6186C152.277 30.602 152.19 30.5938 152.1 30.5938C151.877 30.5938 151.722 30.6458 151.634 30.75C151.547 30.8518 151.503 30.995 151.503 31.1797V37H149.994ZM155.804 37.1065C155.243 37.1065 154.76 36.9929 154.355 36.7656C153.953 36.536 153.643 36.2116 153.425 35.7926C153.207 35.3712 153.098 34.8729 153.098 34.2976C153.098 33.7365 153.207 33.2441 153.425 32.8203C153.643 32.3965 153.949 32.0663 154.345 31.8295C154.743 31.5928 155.209 31.4744 155.744 31.4744C156.104 31.4744 156.439 31.5324 156.749 31.6484C157.061 31.7621 157.334 31.9337 157.566 32.1634C157.8 32.393 157.982 32.6818 158.113 33.0298C158.243 33.3755 158.308 33.7803 158.308 34.2443V34.6598H153.702V33.7223H156.884C156.884 33.5045 156.837 33.3116 156.742 33.1435C156.647 32.9754 156.516 32.844 156.348 32.7493C156.182 32.6522 155.989 32.6037 155.769 32.6037C155.539 32.6037 155.336 32.657 155.158 32.7635C154.983 32.8677 154.846 33.0085 154.746 33.1861C154.647 33.3613 154.596 33.5566 154.593 33.772V34.6634C154.593 34.9332 154.643 35.1664 154.743 35.3629C154.844 35.5594 154.988 35.7109 155.172 35.8175C155.357 35.924 155.576 35.9773 155.829 35.9773C155.997 35.9773 156.151 35.9536 156.291 35.9062C156.431 35.8589 156.55 35.7879 156.65 35.6932C156.749 35.5985 156.825 35.4825 156.877 35.3452L158.276 35.4375C158.205 35.7737 158.059 36.0672 157.839 36.3182C157.621 36.5668 157.34 36.7609 156.994 36.9006C156.651 37.0379 156.254 37.1065 155.804 37.1065ZM161.781 37.1065C161.22 37.1065 160.737 36.9929 160.332 36.7656C159.93 36.536 159.619 36.2116 159.402 35.7926C159.184 35.3712 159.075 34.8729 159.075 34.2976C159.075 33.7365 159.184 33.2441 159.402 32.8203C159.619 32.3965 159.926 32.0663 160.321 31.8295C160.719 31.5928 161.185 31.4744 161.721 31.4744C162.08 31.4744 162.415 31.5324 162.725 31.6484C163.038 31.7621 163.31 31.9337 163.542 32.1634C163.777 32.393 163.959 32.6818 164.089 33.0298C164.219 33.3755 164.284 33.7803 164.284 34.2443V34.6598H159.679V33.7223H162.86C162.86 33.5045 162.813 33.3116 162.718 33.1435C162.624 32.9754 162.492 32.844 162.324 32.7493C162.158 32.6522 161.966 32.6037 161.745 32.6037C161.516 32.6037 161.312 32.657 161.135 32.7635C160.959 32.8677 160.822 33.0085 160.723 33.1861C160.623 33.3613 160.572 33.5566 160.57 33.772V34.6634C160.57 34.9332 160.62 35.1664 160.719 35.3629C160.821 35.5594 160.964 35.7109 161.149 35.8175C161.333 35.924 161.552 35.9773 161.806 35.9773C161.974 35.9773 162.128 35.9536 162.267 35.9062C162.407 35.8589 162.527 35.7879 162.626 35.6932C162.725 35.5985 162.801 35.4825 162.853 35.3452L164.252 35.4375C164.181 35.7737 164.036 36.0672 163.816 36.3182C163.598 36.5668 163.316 36.7609 162.971 36.9006C162.627 37.0379 162.231 37.1065 161.781 37.1065ZM166.156 37.0923C165.922 37.0923 165.72 37.0095 165.552 36.8438C165.386 36.6757 165.304 36.4744 165.304 36.2401C165.304 36.008 165.386 35.8092 165.552 35.6435C165.72 35.4777 165.922 35.3949 166.156 35.3949C166.383 35.3949 166.582 35.4777 166.752 35.6435C166.923 35.8092 167.008 36.008 167.008 36.2401C167.008 36.3963 166.968 36.5395 166.887 36.6697C166.809 36.7976 166.706 36.9006 166.578 36.9787C166.451 37.0545 166.31 37.0923 166.156 37.0923ZM166.156 33.2713C165.922 33.2713 165.72 33.1884 165.552 33.0227C165.386 32.857 165.304 32.6558 165.304 32.419C165.304 32.187 165.386 31.9893 165.552 31.826C165.72 31.6603 165.922 31.5774 166.156 31.5774C166.383 31.5774 166.582 31.6603 166.752 31.826C166.923 31.9893 167.008 32.187 167.008 32.419C167.008 32.5777 166.968 32.7221 166.887 32.8523C166.809 32.9801 166.706 33.0819 166.578 33.1577C166.451 33.2334 166.31 33.2713 166.156 33.2713ZM170.55 37V35.892L173.139 33.495C173.359 33.282 173.544 33.0902 173.693 32.9197C173.845 32.7493 173.96 32.5824 174.038 32.419C174.116 32.2533 174.155 32.0746 174.155 31.8828C174.155 31.6697 174.106 31.4863 174.009 31.3324C173.912 31.1761 173.78 31.0566 173.612 30.9737C173.443 30.8885 173.253 30.8459 173.04 30.8459C172.817 30.8459 172.623 30.8909 172.457 30.9808C172.292 31.0708 172.164 31.1998 172.074 31.3679C171.984 31.536 171.939 31.736 171.939 31.968H170.479C170.479 31.4922 170.587 31.0791 170.803 30.7287C171.018 30.3783 171.32 30.1072 171.708 29.9155C172.096 29.7237 172.544 29.6278 173.05 29.6278C173.571 29.6278 174.025 29.7202 174.411 29.9048C174.799 30.0871 175.101 30.3404 175.316 30.6648C175.531 30.9891 175.639 31.3608 175.639 31.7798C175.639 32.0545 175.585 32.3255 175.476 32.593C175.369 32.8606 175.179 33.1577 174.904 33.4844C174.629 33.8087 174.242 34.1982 173.743 34.6527L172.681 35.6932V35.7429H175.735V37H170.55ZM177.748 37.0923C177.513 37.0923 177.312 37.0095 177.144 36.8438C176.978 36.6757 176.895 36.4744 176.895 36.2401C176.895 36.008 176.978 35.8092 177.144 35.6435C177.312 35.4777 177.513 35.3949 177.748 35.3949C177.975 35.3949 178.174 35.4777 178.344 35.6435C178.515 35.8092 178.6 36.008 178.6 36.2401C178.6 36.3963 178.56 36.5395 178.479 36.6697C178.401 36.7976 178.298 36.9006 178.17 36.9787C178.042 37.0545 177.902 37.0923 177.748 37.0923ZM182.386 37.1598C181.776 37.1574 181.25 37.0071 180.81 36.7088C180.372 36.4105 180.034 35.9785 179.798 35.4126C179.563 34.8468 179.447 34.1662 179.45 33.3707C179.45 32.5777 179.567 31.9018 179.801 31.343C180.038 30.7843 180.375 30.3594 180.813 30.0682C181.254 29.7746 181.778 29.6278 182.386 29.6278C182.995 29.6278 183.518 29.7746 183.956 30.0682C184.396 30.3617 184.735 30.7879 184.972 31.3466C185.208 31.9029 185.326 32.5777 185.323 33.3707C185.323 34.1686 185.205 34.8504 184.968 35.4162C184.734 35.982 184.397 36.4141 183.96 36.7124C183.522 37.0107 182.997 37.1598 182.386 37.1598ZM182.386 35.8849C182.803 35.8849 183.136 35.6754 183.384 35.2564C183.633 34.8374 183.756 34.2088 183.754 33.3707C183.754 32.8191 183.697 32.3598 183.583 31.9929C183.472 31.6259 183.313 31.3501 183.107 31.1655C182.904 30.9808 182.663 30.8885 182.386 30.8885C181.972 30.8885 181.641 31.0956 181.392 31.5099C181.143 31.9242 181.018 32.5445 181.016 33.3707C181.016 33.9295 181.071 34.3958 181.183 34.7699C181.296 35.1416 181.456 35.4209 181.662 35.608C181.868 35.7926 182.109 35.8849 182.386 35.8849ZM190.4 35.6364V35.2528C190.4 34.9616 190.462 34.6941 190.585 34.4503C190.711 34.2041 190.892 34.0076 191.128 33.8608C191.367 33.7116 191.659 33.6371 192.002 33.6371C192.35 33.6371 192.642 33.7105 192.879 33.8572C193.118 34.004 193.298 34.2005 193.419 34.4467C193.542 34.6906 193.604 34.9593 193.604 35.2528V35.6364C193.604 35.9276 193.542 36.1963 193.419 36.4425C193.296 36.6863 193.115 36.8816 192.876 37.0284C192.636 37.1776 192.345 37.2521 192.002 37.2521C191.654 37.2521 191.362 37.1776 191.125 37.0284C190.888 36.8816 190.708 36.6863 190.585 36.4425C190.462 36.1963 190.4 35.9276 190.4 35.6364ZM191.434 35.2528V35.6364C191.434 35.8045 191.474 35.9631 191.555 36.1122C191.637 36.2614 191.787 36.3359 192.002 36.3359C192.217 36.3359 192.364 36.2625 192.442 36.1158C192.523 35.969 192.563 35.8092 192.563 35.6364V35.2528C192.563 35.08 192.525 34.919 192.449 34.7699C192.374 34.6207 192.224 34.5462 192.002 34.5462C191.789 34.5462 191.641 34.6207 191.558 34.7699C191.475 34.919 191.434 35.08 191.434 35.2528ZM186.668 31.4744V31.0909C186.668 30.7973 186.731 30.5286 186.856 30.2848C186.982 30.0386 187.163 29.8421 187.4 29.6953C187.639 29.5485 187.928 29.4751 188.266 29.4751C188.617 29.4751 188.91 29.5485 189.147 29.6953C189.384 29.8421 189.564 30.0386 189.687 30.2848C189.81 30.5286 189.871 30.7973 189.871 31.0909V31.4744C189.871 31.768 189.809 32.0367 189.683 32.2805C189.56 32.5244 189.379 32.7197 189.14 32.8665C188.903 33.0109 188.612 33.0831 188.266 33.0831C187.921 33.0831 187.628 33.0097 187.389 32.8629C187.152 32.7138 186.972 32.5185 186.849 32.277C186.729 32.0331 186.668 31.7656 186.668 31.4744ZM187.709 31.0909V31.4744C187.709 31.6473 187.749 31.8071 187.829 31.9538C187.912 32.1006 188.058 32.174 188.266 32.174C188.484 32.174 188.632 32.1006 188.71 31.9538C188.791 31.8071 188.831 31.6473 188.831 31.4744V31.0909C188.831 30.9181 188.793 30.7571 188.717 30.608C188.641 30.4588 188.491 30.3842 188.266 30.3842C188.055 30.3842 187.91 30.46 187.829 30.6115C187.749 30.763 187.709 30.9228 187.709 31.0909ZM187.137 37L192.137 29.7273H193.067L188.067 37H187.137Z" fill="black"/>
<path d="M190.21 16H187.632V8.72727H190.232C190.963 8.72727 191.593 8.87287 192.121 9.16406C192.649 9.45289 193.055 9.86837 193.339 10.4105C193.625 10.9527 193.768 11.6013 193.768 12.3565C193.768 13.1141 193.625 13.7652 193.339 14.3097C193.055 14.8542 192.646 15.272 192.114 15.5632C191.583 15.8544 190.949 16 190.21 16ZM189.17 14.6825H190.146C190.601 14.6825 190.983 14.602 191.293 14.4411C191.606 14.2777 191.84 14.0256 191.996 13.6847C192.155 13.3414 192.234 12.8987 192.234 12.3565C192.234 11.8191 192.155 11.38 191.996 11.0391C191.84 10.6982 191.607 10.4472 191.297 10.2862C190.987 10.1252 190.604 10.0447 190.15 10.0447H189.17V14.6825ZM194.907 16V8.72727H199.808V9.99503H196.445V11.728H199.556V12.9957H196.445V14.7322H199.822V16H194.907ZM202.344 8.72727L204.102 14.2528H204.17L205.931 8.72727H207.636L205.129 16H203.147L200.636 8.72727H202.344ZM210.548 9.99503V8.72727H216.521V9.99503H214.295V16H212.775V9.99503H210.548ZM219.172 16.1065C218.61 16.1065 218.127 15.9929 217.723 15.7656C217.32 15.536 217.01 15.2116 216.792 14.7926C216.574 14.3712 216.466 13.8729 216.466 13.2976C216.466 12.7365 216.574 12.2441 216.792 11.8203C217.01 11.3965 217.317 11.0663 217.712 10.8295C218.11 10.5928 218.576 10.4744 219.111 10.4744C219.471 10.4744 219.806 10.5324 220.116 10.6484C220.429 10.7621 220.701 10.9337 220.933 11.1634C221.167 11.393 221.35 11.6818 221.48 12.0298C221.61 12.3755 221.675 12.7803 221.675 13.2443V13.6598H217.069V12.7223H220.251C220.251 12.5045 220.204 12.3116 220.109 12.1435C220.014 11.9754 219.883 11.844 219.715 11.7493C219.549 11.6522 219.356 11.6037 219.136 11.6037C218.906 11.6037 218.703 11.657 218.525 11.7635C218.35 11.8677 218.213 12.0085 218.113 12.1861C218.014 12.3613 217.963 12.5566 217.961 12.772V13.6634C217.961 13.9332 218.01 14.1664 218.11 14.3629C218.212 14.5594 218.355 14.7109 218.539 14.8175C218.724 14.924 218.943 14.9773 219.196 14.9773C219.364 14.9773 219.518 14.9536 219.658 14.9062C219.798 14.8589 219.917 14.7879 220.017 14.6932C220.116 14.5985 220.192 14.4825 220.244 14.3452L221.643 14.4375C221.572 14.7737 221.426 15.0672 221.206 15.3182C220.989 15.5668 220.707 15.7609 220.361 15.9006C220.018 16.0379 219.621 16.1065 219.172 16.1065ZM224.218 16.103C223.87 16.103 223.56 16.0426 223.287 15.9219C223.015 15.7988 222.8 15.6177 222.641 15.3786C222.485 15.1371 222.407 14.8364 222.407 14.4766C222.407 14.1735 222.462 13.919 222.574 13.7131C222.685 13.5071 222.836 13.3414 223.028 13.2159C223.22 13.0904 223.438 12.9957 223.681 12.9318C223.928 12.8679 224.186 12.8229 224.456 12.7969C224.773 12.7637 225.029 12.733 225.223 12.7045C225.417 12.6738 225.558 12.6288 225.645 12.5696C225.733 12.5104 225.777 12.4228 225.777 12.3068V12.2855C225.777 12.0606 225.706 11.8866 225.564 11.7635C225.424 11.6404 225.225 11.5788 224.967 11.5788C224.695 11.5788 224.478 11.6392 224.317 11.7599C224.156 11.8783 224.05 12.0275 223.998 12.2074L222.598 12.0938C222.669 11.7623 222.809 11.4759 223.017 11.2344C223.226 10.9905 223.494 10.8035 223.824 10.6733C224.155 10.5407 224.538 10.4744 224.974 10.4744C225.277 10.4744 225.567 10.5099 225.844 10.581C226.123 10.652 226.371 10.7621 226.586 10.9112C226.804 11.0604 226.976 11.2521 227.101 11.4865C227.227 11.7185 227.289 11.9967 227.289 12.321V16H225.855V15.2436H225.812C225.725 15.4141 225.607 15.5644 225.461 15.6946C225.314 15.8224 225.137 15.9231 224.931 15.9964C224.725 16.0675 224.488 16.103 224.218 16.103ZM224.651 15.0589C224.873 15.0589 225.07 15.0152 225.24 14.9276C225.411 14.8376 225.545 14.7169 225.642 14.5653C225.739 14.4138 225.787 14.2422 225.787 14.0504V13.4716C225.74 13.5024 225.675 13.5308 225.592 13.5568C225.511 13.5805 225.42 13.603 225.319 13.6243C225.217 13.6432 225.115 13.661 225.013 13.6776C224.911 13.6918 224.819 13.7048 224.736 13.7166C224.559 13.7427 224.404 13.7841 224.271 13.8409C224.138 13.8977 224.035 13.9747 223.962 14.0717C223.889 14.1664 223.852 14.2848 223.852 14.4268C223.852 14.6328 223.926 14.7902 224.076 14.8991C224.227 15.0057 224.419 15.0589 224.651 15.0589ZM228.463 16V10.5455H229.905V11.5078H229.969C230.082 11.1882 230.272 10.9361 230.537 10.7514C230.802 10.5668 231.119 10.4744 231.489 10.4744C231.863 10.4744 232.181 10.5679 232.444 10.755C232.707 10.9396 232.882 11.1906 232.969 11.5078H233.026C233.138 11.1953 233.339 10.9455 233.63 10.7585C233.924 10.5691 234.27 10.4744 234.67 10.4744C235.179 10.4744 235.593 10.6366 235.91 10.9609C236.229 11.2829 236.389 11.7398 236.389 12.3317V16H234.88V12.63C234.88 12.3269 234.799 12.0997 234.638 11.9482C234.478 11.7966 234.276 11.7209 234.035 11.7209C233.76 11.7209 233.546 11.8085 233.392 11.9837C233.238 12.1565 233.161 12.3849 233.161 12.669V16H231.695V12.598C231.695 12.3305 231.618 12.1174 231.464 11.9588C231.312 11.8002 231.112 11.7209 230.864 11.7209C230.696 11.7209 230.544 11.7635 230.409 11.8487C230.277 11.9316 230.171 12.0488 230.093 12.2003C230.015 12.3494 229.976 12.5246 229.976 12.7259V16H228.463ZM238.468 16.0923C238.234 16.0923 238.033 16.0095 237.865 15.8438C237.699 15.6757 237.616 15.4744 237.616 15.2401C237.616 15.008 237.699 14.8092 237.865 14.6435C238.033 14.4777 238.234 14.3949 238.468 14.3949C238.696 14.3949 238.895 14.4777 239.065 14.6435C239.235 14.8092 239.321 15.008 239.321 15.2401C239.321 15.3963 239.28 15.5395 239.2 15.6697C239.122 15.7976 239.019 15.9006 238.891 15.9787C238.763 16.0545 238.622 16.0923 238.468 16.0923ZM238.468 12.2713C238.234 12.2713 238.033 12.1884 237.865 12.0227C237.699 11.857 237.616 11.6558 237.616 11.419C237.616 11.187 237.699 10.9893 237.865 10.826C238.033 10.6603 238.234 10.5774 238.468 10.5774C238.696 10.5774 238.895 10.6603 239.065 10.826C239.235 10.9893 239.321 11.187 239.321 11.419C239.321 11.5777 239.28 11.7221 239.2 11.8523C239.122 11.9801 239.019 12.0819 238.891 12.1577C238.763 12.2334 238.622 12.2713 238.468 12.2713ZM242.863 16V14.892L245.452 12.495C245.672 12.282 245.857 12.0902 246.006 11.9197C246.157 11.7493 246.272 11.5824 246.35 11.419C246.428 11.2533 246.467 11.0746 246.467 10.8828C246.467 10.6697 246.419 10.4863 246.322 10.3324C246.225 10.1761 246.092 10.0566 245.924 9.97372C245.756 9.88849 245.565 9.84588 245.352 9.84588C245.13 9.84588 244.936 9.89086 244.77 9.98082C244.604 10.0708 244.476 10.1998 244.386 10.3679C244.296 10.536 244.251 10.736 244.251 10.968H242.792C242.792 10.4922 242.9 10.0791 243.115 9.72869C243.33 9.37831 243.632 9.10724 244.021 8.91548C244.409 8.72372 244.856 8.62784 245.363 8.62784C245.884 8.62784 246.337 8.72017 246.723 8.90483C247.111 9.08712 247.413 9.34044 247.629 9.66477C247.844 9.98911 247.952 10.3608 247.952 10.7798C247.952 11.0545 247.897 11.3255 247.788 11.593C247.682 11.8606 247.491 12.1577 247.217 12.4844C246.942 12.8087 246.555 13.1982 246.055 13.6527L244.994 14.6932V14.7429H248.048V16H242.863ZM250.06 16.0923C249.826 16.0923 249.625 16.0095 249.456 15.8438C249.291 15.6757 249.208 15.4744 249.208 15.2401C249.208 15.008 249.291 14.8092 249.456 14.6435C249.625 14.4777 249.826 14.3949 250.06 14.3949C250.287 14.3949 250.486 14.4777 250.657 14.6435C250.827 14.8092 250.912 15.008 250.912 15.2401C250.912 15.3963 250.872 15.5395 250.792 15.6697C250.714 15.7976 250.611 15.9006 250.483 15.9787C250.355 16.0545 250.214 16.0923 250.06 16.0923ZM254.699 16.1598C254.088 16.1574 253.563 16.0071 253.122 15.7088C252.684 15.4105 252.347 14.9785 252.11 14.4126C251.876 13.8468 251.76 13.1662 251.762 12.3707C251.762 11.5777 251.879 10.9018 252.114 10.343C252.35 9.78433 252.688 9.35937 253.126 9.06818C253.566 8.77462 254.09 8.62784 254.699 8.62784C255.307 8.62784 255.83 8.77462 256.268 9.06818C256.709 9.36174 257.047 9.78788 257.284 10.3466C257.521 10.9029 257.638 11.5777 257.636 12.3707C257.636 13.1686 257.517 13.8504 257.281 14.4162C257.046 14.982 256.71 15.4141 256.272 15.7124C255.834 16.0107 255.31 16.1598 254.699 16.1598ZM254.699 14.8849C255.116 14.8849 255.448 14.6754 255.697 14.2564C255.945 13.8374 256.068 13.2088 256.066 12.3707C256.066 11.8191 256.009 11.3598 255.896 10.9929C255.784 10.6259 255.626 10.3501 255.42 10.1655C255.216 9.98082 254.976 9.88849 254.699 9.88849C254.285 9.88849 253.953 10.0956 253.705 10.5099C253.456 10.9242 253.33 11.5445 253.328 12.3707C253.328 12.9295 253.384 13.3958 253.495 13.7699C253.609 14.1416 253.768 14.4209 253.974 14.608C254.18 14.7926 254.422 14.8849 254.699 14.8849ZM262.713 14.6364V14.2528C262.713 13.9616 262.774 13.6941 262.898 13.4503C263.023 13.2041 263.204 13.0076 263.441 12.8608C263.68 12.7116 263.971 12.6371 264.314 12.6371C264.662 12.6371 264.955 12.7105 265.192 12.8572C265.431 13.004 265.611 13.2005 265.731 13.4467C265.854 13.6906 265.916 13.9593 265.916 14.2528V14.6364C265.916 14.9276 265.854 15.1963 265.731 15.4425C265.608 15.6863 265.427 15.8816 265.188 16.0284C264.949 16.1776 264.658 16.2521 264.314 16.2521C263.966 16.2521 263.674 16.1776 263.437 16.0284C263.201 15.8816 263.021 15.6863 262.898 15.4425C262.774 15.1963 262.713 14.9276 262.713 14.6364ZM263.746 14.2528V14.6364C263.746 14.8045 263.787 14.9631 263.867 15.1122C263.95 15.2614 264.099 15.3359 264.314 15.3359C264.53 15.3359 264.677 15.2625 264.755 15.1158C264.835 14.969 264.876 14.8092 264.876 14.6364V14.2528C264.876 14.08 264.838 13.919 264.762 13.7699C264.686 13.6207 264.537 13.5462 264.314 13.5462C264.101 13.5462 263.953 13.6207 263.871 13.7699C263.788 13.919 263.746 14.08 263.746 14.2528ZM258.981 10.4744V10.0909C258.981 9.79735 259.043 9.52865 259.169 9.2848C259.294 9.03859 259.475 8.84209 259.712 8.69531C259.951 8.54853 260.24 8.47514 260.579 8.47514C260.929 8.47514 261.223 8.54853 261.459 8.69531C261.696 8.84209 261.876 9.03859 261.999 9.2848C262.122 9.52865 262.184 9.79735 262.184 10.0909V10.4744C262.184 10.768 262.121 11.0367 261.996 11.2805C261.872 11.5244 261.691 11.7197 261.452 11.8665C261.215 12.0109 260.924 12.0831 260.579 12.0831C260.233 12.0831 259.941 12.0097 259.702 11.8629C259.465 11.7138 259.285 11.5185 259.162 11.277C259.041 11.0331 258.981 10.7656 258.981 10.4744ZM260.021 10.0909V10.4744C260.021 10.6473 260.061 10.8071 260.142 10.9538C260.225 11.1006 260.37 11.174 260.579 11.174C260.796 11.174 260.944 11.1006 261.023 10.9538C261.103 10.8071 261.143 10.6473 261.143 10.4744V10.0909C261.143 9.91809 261.105 9.7571 261.03 9.60795C260.954 9.45881 260.804 9.38423 260.579 9.38423C260.368 9.38423 260.222 9.45999 260.142 9.61151C260.061 9.76302 260.021 9.92282 260.021 10.0909ZM259.449 16L264.449 8.72727H265.38L260.38 16H259.449Z" fill="black"/>
</svg>
