<svg width="924" height="670" viewBox="0 0 924 670" fill="none" xmlns="http://www.w3.org/2000/svg">
<path d="M445.439 75.5C504.176 75.488 561.596 92.8922 610.442 125.512C659.287 158.132 697.364 204.502 719.858 258.76C742.351 313.019 748.252 372.728 736.813 430.34C725.375 487.951 697.11 540.878 655.594 582.427C614.078 623.976 561.174 652.283 503.572 663.767C445.969 675.252 386.255 669.399 331.979 646.948C277.703 624.498 231.302 586.458 198.643 537.639C165.985 488.819 148.535 431.412 148.5 372.676L445.5 372.5L445.439 75.5Z" fill="#3298B4" stroke="white" stroke-linejoin="round"/>
<path d="M148.5 372.379C148.526 309.742 168.354 248.716 205.15 198.027C241.946 147.337 293.827 109.578 353.375 90.1493L445.5 372.5L148.5 372.379Z" fill="#ED561B" stroke="white" stroke-linejoin="round"/>
<path d="M353.657 90.0572C359.495 88.159 365.39 86.4422 371.334 84.9093L445.5 372.5L353.657 90.0572Z" fill="#DDDF00" stroke="white" stroke-linejoin="round"/>
<path d="M371.621 84.8354C383.611 81.7561 395.782 79.4294 408.062 77.869L445.5 372.5L371.621 84.8354Z" fill="#242AE5" stroke="white" stroke-linejoin="round"/>
<path d="M408.357 77.8318C420.54 76.2961 432.807 75.5174 445.087 75.5004L445.5 372.5L408.357 77.8318Z" fill="#64E572" stroke="white" stroke-linejoin="round"/>
<path d="M743.051 597.314C733.314 597.314 722.297 586.297 707.148 571.148L692 556" stroke="#3298B4" stroke-width="2"/>
<path d="M156.297 149.419C166.035 149.419 178.64 158.577 195.971 171.169L213.303 183.761" stroke="#ED561B" stroke-width="2"/>
<path d="M207.537 93.5343C217.274 93.5343 347.412 39.9613 353.389 60.5336L359.366 81.106" stroke="#DDDF00" stroke-width="2"/>
<path d="M266.362 52.6359C276.1 52.6359 376.582 32.958 380.597 54.0015L384.611 75.045" stroke="#242AE5" stroke-width="2"/>
<path d="M405.539 11.7378C415.277 11.7378 416.255 27.9465 417.6 49.3271L418.946 70.7078" stroke="#64E572" stroke-width="2"/>
<path d="M755.264 616V601.455H764.895V603.99H758.339V607.456H764.256V609.991H758.339V616H755.264ZM769.881 616.206C769.185 616.206 768.564 616.085 768.02 615.844C767.475 615.598 767.045 615.235 766.727 614.757C766.415 614.274 766.259 613.673 766.259 612.953C766.259 612.347 766.37 611.838 766.592 611.426C766.815 611.014 767.118 610.683 767.501 610.432C767.885 610.181 768.321 609.991 768.808 609.864C769.301 609.736 769.817 609.646 770.357 609.594C770.991 609.527 771.502 609.466 771.891 609.409C772.279 609.348 772.561 609.258 772.736 609.139C772.911 609.021 772.999 608.846 772.999 608.614V608.571C772.999 608.121 772.857 607.773 772.572 607.527C772.293 607.281 771.895 607.158 771.379 607.158C770.835 607.158 770.402 607.278 770.08 607.52C769.758 607.757 769.545 608.055 769.44 608.415L766.642 608.188C766.784 607.525 767.063 606.952 767.48 606.469C767.897 605.981 768.434 605.607 769.092 605.347C769.755 605.081 770.522 604.949 771.393 604.949C772 604.949 772.58 605.02 773.134 605.162C773.692 605.304 774.187 605.524 774.618 605.822C775.054 606.121 775.397 606.504 775.648 606.973C775.899 607.437 776.024 607.993 776.024 608.642V616H773.155V614.487H773.07C772.894 614.828 772.66 615.129 772.366 615.389C772.073 615.645 771.72 615.846 771.308 615.993C770.896 616.135 770.42 616.206 769.881 616.206ZM770.747 614.118C771.192 614.118 771.585 614.03 771.926 613.855C772.267 613.675 772.535 613.434 772.729 613.131C772.923 612.828 773.02 612.484 773.02 612.101V610.943C772.925 611.005 772.795 611.062 772.629 611.114C772.468 611.161 772.286 611.206 772.082 611.249C771.879 611.286 771.675 611.322 771.472 611.355C771.268 611.384 771.083 611.41 770.918 611.433C770.563 611.485 770.252 611.568 769.987 611.682C769.722 611.795 769.516 611.949 769.369 612.143C769.223 612.333 769.149 612.57 769.149 612.854C769.149 613.266 769.298 613.58 769.597 613.798C769.9 614.011 770.283 614.118 770.747 614.118ZM778.371 616V605.091H781.397V616H778.371ZM779.891 603.685C779.442 603.685 779.056 603.536 778.734 603.237C778.416 602.934 778.258 602.572 778.258 602.151C778.258 601.734 778.416 601.376 778.734 601.078C779.056 600.775 779.442 600.624 779.891 600.624C780.341 600.624 780.725 600.775 781.042 601.078C781.364 601.376 781.525 601.734 781.525 602.151C781.525 602.572 781.364 602.934 781.042 603.237C780.725 603.536 780.341 603.685 779.891 603.685ZM783.821 616V605.091H786.754V606.994H786.868C787.066 606.317 787.4 605.806 787.869 605.46C788.338 605.11 788.877 604.935 789.488 604.935C789.64 604.935 789.803 604.944 789.978 604.963C790.154 604.982 790.307 605.008 790.44 605.041V607.726C790.298 607.683 790.101 607.645 789.85 607.612C789.6 607.579 789.37 607.562 789.162 607.562C788.717 607.562 788.319 607.66 787.968 607.854C787.623 608.043 787.348 608.308 787.145 608.649C786.946 608.99 786.846 609.383 786.846 609.828V616H783.821ZM795.03 601.455V616H792.004V601.455H795.03ZM800.564 616.206C799.868 616.206 799.248 616.085 798.703 615.844C798.159 615.598 797.728 615.235 797.411 614.757C797.098 614.274 796.942 613.673 796.942 612.953C796.942 612.347 797.053 611.838 797.276 611.426C797.498 611.014 797.801 610.683 798.185 610.432C798.569 610.181 799.004 609.991 799.492 609.864C799.984 609.736 800.5 609.646 801.04 609.594C801.675 609.527 802.186 609.466 802.574 609.409C802.962 609.348 803.244 609.258 803.419 609.139C803.595 609.021 803.682 608.846 803.682 608.614V608.571C803.682 608.121 803.54 607.773 803.256 607.527C802.977 607.281 802.579 607.158 802.063 607.158C801.518 607.158 801.085 607.278 800.763 607.52C800.441 607.757 800.228 608.055 800.124 608.415L797.326 608.188C797.468 607.525 797.747 606.952 798.164 606.469C798.58 605.981 799.118 605.607 799.776 605.347C800.439 605.081 801.206 604.949 802.077 604.949C802.683 604.949 803.263 605.02 803.817 605.162C804.376 605.304 804.871 605.524 805.301 605.822C805.737 606.121 806.08 606.504 806.331 606.973C806.582 607.437 806.708 607.993 806.708 608.642V616H803.838V614.487H803.753C803.578 614.828 803.344 615.129 803.05 615.389C802.757 615.645 802.404 615.846 801.992 615.993C801.58 616.135 801.104 616.206 800.564 616.206ZM801.431 614.118C801.876 614.118 802.269 614.03 802.61 613.855C802.951 613.675 803.218 613.434 803.412 613.131C803.606 612.828 803.703 612.484 803.703 612.101V610.943C803.609 611.005 803.479 611.062 803.313 611.114C803.152 611.161 802.97 611.206 802.766 611.249C802.562 611.286 802.359 611.322 802.155 611.355C801.952 611.384 801.767 611.41 801.601 611.433C801.246 611.485 800.936 611.568 800.671 611.682C800.406 611.795 800.2 611.949 800.053 612.143C799.906 612.333 799.833 612.57 799.833 612.854C799.833 613.266 799.982 613.58 800.28 613.798C800.583 614.011 800.967 614.118 801.431 614.118ZM816.051 611.355V605.091H819.076V616H816.172V614.018H816.058C815.812 614.658 815.402 615.171 814.829 615.56C814.261 615.948 813.567 616.142 812.748 616.142C812.019 616.142 811.377 615.976 810.824 615.645C810.27 615.313 809.836 614.842 809.524 614.232C809.216 613.621 809.06 612.889 809.055 612.037V605.091H812.081V611.497C812.085 612.141 812.258 612.65 812.599 613.024C812.94 613.398 813.397 613.585 813.97 613.585C814.334 613.585 814.675 613.502 814.993 613.337C815.31 613.166 815.565 612.915 815.76 612.584C815.958 612.252 816.056 611.843 816.051 611.355ZM824.522 609.693V616H821.496V605.091H824.38V607.016H824.508C824.749 606.381 825.154 605.879 825.722 605.51C826.29 605.136 826.979 604.949 827.789 604.949C828.547 604.949 829.207 605.115 829.771 605.446C830.334 605.777 830.772 606.251 831.085 606.866C831.397 607.477 831.553 608.206 831.553 609.054V616H828.528V609.594C828.532 608.926 828.362 608.405 828.016 608.031C827.671 607.652 827.195 607.463 826.589 607.463C826.182 607.463 825.822 607.551 825.509 607.726C825.201 607.901 824.96 608.157 824.785 608.493C824.614 608.824 824.527 609.224 824.522 609.693ZM838.867 616.213C837.749 616.213 836.788 615.976 835.983 615.503C835.183 615.025 834.568 614.362 834.137 613.514C833.711 612.667 833.498 611.691 833.498 610.588C833.498 609.471 833.713 608.491 834.144 607.648C834.579 606.8 835.197 606.14 835.998 605.666C836.798 605.188 837.749 604.949 838.853 604.949C839.804 604.949 840.638 605.122 841.353 605.467C842.068 605.813 842.633 606.298 843.05 606.923C843.467 607.548 843.696 608.282 843.739 609.125H840.884C840.803 608.58 840.59 608.143 840.245 607.811C839.904 607.475 839.456 607.307 838.902 607.307C838.434 607.307 838.024 607.435 837.674 607.69C837.328 607.941 837.058 608.308 836.864 608.791C836.67 609.274 836.573 609.859 836.573 610.545C836.573 611.241 836.667 611.833 836.857 612.321C837.051 612.809 837.323 613.18 837.674 613.436C838.024 613.692 838.434 613.82 838.902 613.82C839.248 613.82 839.558 613.749 839.833 613.607C840.112 613.464 840.342 613.259 840.522 612.989C840.706 612.714 840.827 612.385 840.884 612.001H843.739C843.692 612.835 843.464 613.569 843.057 614.203C842.655 614.833 842.098 615.325 841.388 615.68C840.678 616.036 839.837 616.213 838.867 616.213ZM848.702 609.693V616H845.676V601.455H848.616V607.016H848.744C848.991 606.372 849.388 605.867 849.938 605.503C850.487 605.134 851.176 604.949 852.004 604.949C852.762 604.949 853.422 605.115 853.986 605.446C854.554 605.773 854.994 606.244 855.307 606.859C855.624 607.47 855.78 608.202 855.776 609.054V616H852.75V609.594C852.755 608.921 852.584 608.398 852.239 608.024C851.898 607.65 851.42 607.463 850.804 607.463C850.392 607.463 850.027 607.551 849.71 607.726C849.398 607.901 849.152 608.157 848.972 608.493C848.796 608.824 848.706 609.224 848.702 609.693ZM859.925 616.185C859.456 616.185 859.054 616.019 858.718 615.688C858.386 615.351 858.221 614.949 858.221 614.48C858.221 614.016 858.386 613.618 858.718 613.287C859.054 612.955 859.456 612.79 859.925 612.79C860.38 612.79 860.777 612.955 861.118 613.287C861.459 613.618 861.63 614.016 861.63 614.48C861.63 614.793 861.549 615.079 861.388 615.339C861.232 615.595 861.026 615.801 860.77 615.957C860.515 616.109 860.233 616.185 859.925 616.185ZM859.925 608.543C859.456 608.543 859.054 608.377 858.718 608.045C858.386 607.714 858.221 607.312 858.221 606.838C858.221 606.374 858.386 605.979 858.718 605.652C859.054 605.321 859.456 605.155 859.925 605.155C860.38 605.155 860.777 605.321 861.118 605.652C861.459 605.979 861.63 606.374 861.63 606.838C861.63 607.155 861.549 607.444 861.388 607.705C861.232 607.96 861.026 608.164 860.77 608.315C860.515 608.467 860.233 608.543 859.925 608.543ZM755.754 640L761.784 628.068V627.969H754.76V625.455H764.966V628.004L758.929 640H755.754ZM772.191 640.199C771.187 640.199 770.292 640.014 769.506 639.645C768.725 639.276 768.105 638.767 767.645 638.118C767.186 637.469 766.947 636.726 766.928 635.888H769.911C769.944 636.451 770.181 636.908 770.621 637.259C771.061 637.609 771.585 637.784 772.191 637.784C772.674 637.784 773.1 637.678 773.469 637.464C773.843 637.247 774.134 636.946 774.343 636.562C774.556 636.174 774.662 635.729 774.662 635.227C774.662 634.716 774.553 634.266 774.336 633.878C774.123 633.49 773.827 633.187 773.448 632.969C773.069 632.751 772.636 632.64 772.148 632.635C771.722 632.635 771.308 632.723 770.905 632.898C770.507 633.073 770.197 633.312 769.975 633.615L767.24 633.125L767.929 625.455H776.821V627.969H770.465L770.088 631.612H770.174C770.429 631.252 770.815 630.954 771.331 630.717C771.847 630.481 772.425 630.362 773.064 630.362C773.94 630.362 774.721 630.568 775.408 630.98C776.095 631.392 776.637 631.958 777.034 632.678C777.432 633.393 777.629 634.216 777.624 635.149C777.629 636.129 777.401 637 776.942 637.763C776.488 638.52 775.851 639.117 775.032 639.553C774.217 639.983 773.27 640.199 772.191 640.199ZM781.097 640.185C780.628 640.185 780.226 640.019 779.89 639.688C779.558 639.351 779.392 638.949 779.392 638.48C779.392 638.016 779.558 637.618 779.89 637.287C780.226 636.955 780.628 636.79 781.097 636.79C781.551 636.79 781.949 636.955 782.29 637.287C782.631 637.618 782.801 638.016 782.801 638.48C782.801 638.793 782.721 639.079 782.56 639.339C782.404 639.595 782.198 639.801 781.942 639.957C781.686 640.109 781.405 640.185 781.097 640.185ZM790.374 640.32C789.153 640.315 788.102 640.014 787.221 639.418C786.345 638.821 785.67 637.957 785.197 636.825C784.728 635.694 784.496 634.332 784.501 632.741C784.501 631.155 784.735 629.804 785.204 628.686C785.677 627.569 786.352 626.719 787.228 626.136C788.109 625.549 789.157 625.256 790.374 625.256C791.591 625.256 792.638 625.549 793.513 626.136C794.394 626.723 795.071 627.576 795.545 628.693C796.018 629.806 796.253 631.155 796.248 632.741C796.248 634.337 796.011 635.701 795.538 636.832C795.069 637.964 794.397 638.828 793.521 639.425C792.645 640.021 791.596 640.32 790.374 640.32ZM790.374 637.77C791.208 637.77 791.873 637.351 792.37 636.513C792.867 635.675 793.113 634.418 793.109 632.741C793.109 631.638 792.995 630.72 792.768 629.986C792.545 629.252 792.228 628.7 791.816 628.331C791.409 627.962 790.928 627.777 790.374 627.777C789.546 627.777 788.883 628.191 788.386 629.02C787.888 629.848 787.638 631.089 787.633 632.741C787.633 633.859 787.744 634.792 787.967 635.54C788.194 636.283 788.513 636.842 788.925 637.216C789.337 637.585 789.82 637.77 790.374 637.77ZM806.402 637.273V636.506C806.402 635.923 806.525 635.388 806.772 634.901C807.023 634.408 807.385 634.015 807.858 633.722C808.337 633.423 808.919 633.274 809.605 633.274C810.301 633.274 810.886 633.421 811.36 633.714C811.838 634.008 812.198 634.401 812.439 634.893C812.685 635.381 812.809 635.919 812.809 636.506V637.273C812.809 637.855 812.685 638.393 812.439 638.885C812.193 639.373 811.831 639.763 811.353 640.057C810.874 640.355 810.292 640.504 809.605 640.504C808.909 640.504 808.325 640.355 807.851 640.057C807.378 639.763 807.018 639.373 806.772 638.885C806.525 638.393 806.402 637.855 806.402 637.273ZM808.469 636.506V637.273C808.469 637.609 808.55 637.926 808.711 638.224C808.876 638.523 809.175 638.672 809.605 638.672C810.036 638.672 810.33 638.525 810.486 638.232C810.647 637.938 810.728 637.618 810.728 637.273V636.506C810.728 636.16 810.652 635.838 810.5 635.54C810.349 635.241 810.051 635.092 809.605 635.092C809.179 635.092 808.883 635.241 808.718 635.54C808.552 635.838 808.469 636.16 808.469 636.506ZM798.938 628.949V628.182C798.938 627.595 799.063 627.057 799.314 626.57C799.565 626.077 799.927 625.684 800.401 625.391C800.879 625.097 801.457 624.95 802.134 624.95C802.835 624.95 803.422 625.097 803.895 625.391C804.369 625.684 804.729 626.077 804.975 626.57C805.221 627.057 805.344 627.595 805.344 628.182V628.949C805.344 629.536 805.219 630.073 804.968 630.561C804.721 631.049 804.359 631.439 803.881 631.733C803.408 632.022 802.825 632.166 802.134 632.166C801.443 632.166 800.858 632.019 800.38 631.726C799.906 631.428 799.546 631.037 799.3 630.554C799.059 630.066 798.938 629.531 798.938 628.949ZM801.019 628.182V628.949C801.019 629.295 801.099 629.614 801.26 629.908C801.426 630.201 801.717 630.348 802.134 630.348C802.569 630.348 802.865 630.201 803.022 629.908C803.183 629.614 803.263 629.295 803.263 628.949V628.182C803.263 627.836 803.187 627.514 803.036 627.216C802.884 626.918 802.584 626.768 802.134 626.768C801.712 626.768 801.421 626.92 801.26 627.223C801.099 627.526 801.019 627.846 801.019 628.182ZM799.875 640L809.875 625.455H811.736L801.736 640H799.875Z" fill="black"/>
<path d="M3.77131 159H0.475852L5.49716 144.455H9.46023L14.4744 159H11.179L7.53551 147.778H7.42188L3.77131 159ZM3.56534 153.283H11.3494V155.683H3.56534V153.283ZM19.6804 159.178C18.8518 159.178 18.1013 158.964 17.429 158.538C16.7614 158.107 16.2311 157.475 15.8381 156.642C15.4498 155.804 15.2557 154.777 15.2557 153.56C15.2557 152.31 15.4569 151.27 15.8594 150.442C16.2618 149.608 16.7969 148.986 17.4645 148.574C18.1368 148.157 18.8731 147.949 19.6733 147.949C20.2841 147.949 20.7931 148.053 21.2003 148.261C21.6122 148.465 21.9437 148.721 22.1946 149.028C22.4503 149.331 22.6444 149.63 22.777 149.923H22.8693V144.455H25.8878V159H22.9048V157.253H22.777C22.6349 157.556 22.4337 157.857 22.1733 158.155C21.9176 158.448 21.5838 158.692 21.1719 158.886C20.7647 159.08 20.2675 159.178 19.6804 159.178ZM20.6392 156.77C21.1269 156.77 21.5388 156.637 21.875 156.372C22.2159 156.102 22.4763 155.726 22.6562 155.243C22.8409 154.76 22.9332 154.194 22.9332 153.545C22.9332 152.897 22.8433 152.333 22.6634 151.855C22.4834 151.377 22.223 151.008 21.8821 150.747C21.5412 150.487 21.1269 150.357 20.6392 150.357C20.142 150.357 19.723 150.491 19.3821 150.761C19.0412 151.031 18.7831 151.405 18.608 151.884C18.4328 152.362 18.3452 152.916 18.3452 153.545C18.3452 154.18 18.4328 154.741 18.608 155.229C18.7879 155.712 19.0459 156.09 19.3821 156.365C19.723 156.635 20.142 156.77 20.6392 156.77ZM32.3952 159.178C31.5666 159.178 30.8162 158.964 30.1438 158.538C29.4762 158.107 28.9459 157.475 28.5529 156.642C28.1647 155.804 27.9705 154.777 27.9705 153.56C27.9705 152.31 28.1718 151.27 28.5742 150.442C28.9767 149.608 29.5117 148.986 30.1793 148.574C30.8517 148.157 31.5879 147.949 32.3881 147.949C32.9989 147.949 33.5079 148.053 33.9151 148.261C34.3271 148.465 34.6585 148.721 34.9094 149.028C35.1651 149.331 35.3593 149.63 35.4918 149.923H35.5842V144.455H38.6026V159H35.6197V157.253H35.4918C35.3498 157.556 35.1486 157.857 34.8881 158.155C34.6325 158.448 34.2987 158.692 33.8867 158.886C33.4795 159.08 32.9824 159.178 32.3952 159.178ZM33.354 156.77C33.8417 156.77 34.2537 156.637 34.5898 156.372C34.9308 156.102 35.1912 155.726 35.3711 155.243C35.5558 154.76 35.6481 154.194 35.6481 153.545C35.6481 152.897 35.5581 152.333 35.3782 151.855C35.1983 151.377 34.9379 151.008 34.5969 150.747C34.256 150.487 33.8417 150.357 33.354 150.357C32.8569 150.357 32.4379 150.491 32.0969 150.761C31.756 151.031 31.498 151.405 31.3228 151.884C31.1476 152.362 31.06 152.916 31.06 153.545C31.06 154.18 31.1476 154.741 31.3228 155.229C31.5027 155.712 31.7608 156.09 32.0969 156.365C32.4379 156.635 32.8569 156.77 33.354 156.77ZM45.7759 159V144.455H48.8512V156.464H55.087V159H45.7759ZM57.1236 159V144.455H62.8622C63.9654 144.455 64.9053 144.665 65.6818 145.087C66.4583 145.503 67.0502 146.083 67.4574 146.827C67.8693 147.565 68.0753 148.418 68.0753 149.384C68.0753 150.349 67.867 151.202 67.4503 151.94C67.0336 152.679 66.4299 153.254 65.6392 153.666C64.8532 154.078 63.9015 154.284 62.7841 154.284H59.1264V151.82H62.2869C62.8788 151.82 63.3665 151.718 63.75 151.514C64.1383 151.306 64.4271 151.019 64.6165 150.655C64.8106 150.286 64.9077 149.862 64.9077 149.384C64.9077 148.901 64.8106 148.479 64.6165 148.119C64.4271 147.755 64.1383 147.473 63.75 147.274C63.3617 147.071 62.8693 146.969 62.2727 146.969H60.1989V159H57.1236ZM71.7844 157.31C71.3157 157.31 70.9132 157.144 70.5771 156.812C70.2456 156.481 70.0799 156.079 70.0799 155.605C70.0799 155.141 70.2456 154.743 70.5771 154.412C70.9132 154.08 71.3157 153.915 71.7844 153.915C72.239 153.915 72.6367 154.08 72.9776 154.412C73.3185 154.743 73.489 155.141 73.489 155.605C73.489 155.918 73.4085 156.204 73.2475 156.464C73.0913 156.72 72.8853 156.926 72.6296 157.082C72.3739 157.234 72.0922 157.31 71.7844 157.31ZM71.7844 150.172C71.3157 150.172 70.9132 150.006 70.5771 149.675C70.2456 149.343 70.0799 148.941 70.0799 148.467C70.0799 148.003 70.2456 147.608 70.5771 147.281C70.9132 146.95 71.3157 146.784 71.7844 146.784C72.239 146.784 72.6367 146.95 72.9776 147.281C73.3185 147.608 73.489 148.003 73.489 148.467C73.489 148.785 73.4085 149.073 73.2475 149.334C73.0913 149.589 72.8853 149.793 72.6296 149.945C72.3739 150.096 72.0922 150.172 71.7844 150.172ZM80.5735 159V156.784L85.7511 151.99C86.1914 151.564 86.5607 151.18 86.859 150.839C87.1621 150.499 87.3917 150.165 87.5479 149.838C87.7042 149.507 87.7823 149.149 87.7823 148.766C87.7823 148.339 87.6853 147.973 87.4911 147.665C87.297 147.352 87.0318 147.113 86.6957 146.947C86.3595 146.777 85.9783 146.692 85.5522 146.692C85.1071 146.692 84.7189 146.782 84.3874 146.962C84.056 147.142 83.8003 147.4 83.6204 147.736C83.4405 148.072 83.3505 148.472 83.3505 148.936H80.4315C80.4315 147.984 80.6469 147.158 81.0778 146.457C81.5086 145.757 82.1123 145.214 82.8888 144.831C83.6654 144.447 84.5603 144.256 85.5735 144.256C86.6152 144.256 87.5219 144.44 88.2937 144.81C89.0702 145.174 89.6739 145.681 90.1048 146.33C90.5356 146.978 90.7511 147.722 90.7511 148.56C90.7511 149.109 90.6422 149.651 90.4244 150.186C90.2113 150.721 89.8301 151.315 89.2809 151.969C88.7317 152.617 87.9575 153.396 86.9585 154.305L84.8349 156.386V156.486H90.9428V159H80.5735ZM98.8743 159.32C97.6527 159.315 96.6016 159.014 95.7209 158.418C94.8449 157.821 94.1702 156.957 93.6967 155.825C93.228 154.694 92.996 153.332 93.0007 151.741C93.0007 150.155 93.2351 148.804 93.7038 147.686C94.1773 146.569 94.852 145.719 95.728 145.136C96.6087 144.549 97.6574 144.256 98.8743 144.256C100.091 144.256 101.138 144.549 102.013 145.136C102.894 145.723 103.571 146.576 104.045 147.693C104.518 148.806 104.753 150.155 104.748 151.741C104.748 153.337 104.511 154.701 104.038 155.832C103.569 156.964 102.897 157.828 102.021 158.425C101.145 159.021 100.096 159.32 98.8743 159.32ZM98.8743 156.77C99.7076 156.77 100.373 156.351 100.87 155.513C101.367 154.675 101.613 153.418 101.609 151.741C101.609 150.638 101.495 149.72 101.268 148.986C101.045 148.252 100.728 147.7 100.316 147.331C99.9089 146.962 99.4283 146.777 98.8743 146.777C98.0457 146.777 97.3828 147.191 96.8857 148.02C96.3885 148.848 96.1375 150.089 96.1328 151.741C96.1328 152.859 96.2441 153.792 96.4666 154.54C96.6939 155.283 97.0135 155.842 97.4254 156.216C97.8374 156.585 98.3203 156.77 98.8743 156.77ZM108.152 159.185C107.683 159.185 107.28 159.019 106.944 158.688C106.613 158.351 106.447 157.949 106.447 157.48C106.447 157.016 106.613 156.618 106.944 156.287C107.28 155.955 107.683 155.79 108.152 155.79C108.606 155.79 109.004 155.955 109.345 156.287C109.686 156.618 109.856 157.016 109.856 157.48C109.856 157.793 109.776 158.079 109.615 158.339C109.458 158.595 109.252 158.801 108.997 158.957C108.741 159.109 108.459 159.185 108.152 159.185ZM117.429 159.32C116.207 159.315 115.156 159.014 114.276 158.418C113.4 157.821 112.725 156.957 112.251 155.825C111.783 154.694 111.551 153.332 111.555 151.741C111.555 150.155 111.79 148.804 112.259 147.686C112.732 146.569 113.407 145.719 114.283 145.136C115.163 144.549 116.212 144.256 117.429 144.256C118.646 144.256 119.692 144.549 120.568 145.136C121.449 145.723 122.126 146.576 122.599 147.693C123.073 148.806 123.307 150.155 123.303 151.741C123.303 153.337 123.066 154.701 122.592 155.832C122.124 156.964 121.451 157.828 120.575 158.425C119.699 159.021 118.651 159.32 117.429 159.32ZM117.429 156.77C118.262 156.77 118.928 156.351 119.425 155.513C119.922 154.675 120.168 153.418 120.163 151.741C120.163 150.638 120.05 149.72 119.822 148.986C119.6 148.252 119.283 147.7 118.871 147.331C118.464 146.962 117.983 146.777 117.429 146.777C116.6 146.777 115.938 147.191 115.44 148.02C114.943 148.848 114.692 150.089 114.688 151.741C114.688 152.859 114.799 153.792 115.021 154.54C115.249 155.283 115.568 155.842 115.98 156.216C116.392 156.585 116.875 156.77 117.429 156.77ZM133.457 156.273V155.506C133.457 154.923 133.58 154.388 133.826 153.901C134.077 153.408 134.44 153.015 134.913 152.722C135.391 152.423 135.974 152.274 136.66 152.274C137.356 152.274 137.941 152.421 138.414 152.714C138.893 153.008 139.252 153.401 139.494 153.893C139.74 154.381 139.863 154.919 139.863 155.506V156.273C139.863 156.855 139.74 157.393 139.494 157.885C139.248 158.373 138.886 158.763 138.407 159.057C137.929 159.355 137.347 159.504 136.66 159.504C135.964 159.504 135.379 159.355 134.906 159.057C134.432 158.763 134.073 158.373 133.826 157.885C133.58 157.393 133.457 156.855 133.457 156.273ZM135.524 155.506V156.273C135.524 156.609 135.604 156.926 135.765 157.224C135.931 157.523 136.229 157.672 136.66 157.672C137.091 157.672 137.385 157.525 137.541 157.232C137.702 156.938 137.782 156.618 137.782 156.273V155.506C137.782 155.16 137.707 154.838 137.555 154.54C137.404 154.241 137.105 154.092 136.66 154.092C136.234 154.092 135.938 154.241 135.772 154.54C135.607 154.838 135.524 155.16 135.524 155.506ZM125.993 147.949V147.182C125.993 146.595 126.118 146.057 126.369 145.57C126.62 145.077 126.982 144.684 127.456 144.391C127.934 144.097 128.511 143.95 129.189 143.95C129.889 143.95 130.476 144.097 130.95 144.391C131.423 144.684 131.783 145.077 132.029 145.57C132.276 146.057 132.399 146.595 132.399 147.182V147.949C132.399 148.536 132.273 149.073 132.022 149.561C131.776 150.049 131.414 150.439 130.936 150.733C130.462 151.022 129.88 151.166 129.189 151.166C128.497 151.166 127.913 151.019 127.434 150.726C126.961 150.428 126.601 150.037 126.355 149.554C126.113 149.066 125.993 148.531 125.993 147.949ZM128.074 147.182V147.949C128.074 148.295 128.154 148.614 128.315 148.908C128.481 149.201 128.772 149.348 129.189 149.348C129.624 149.348 129.92 149.201 130.076 148.908C130.237 148.614 130.318 148.295 130.318 147.949V147.182C130.318 146.836 130.242 146.514 130.091 146.216C129.939 145.918 129.638 145.768 129.189 145.768C128.767 145.768 128.476 145.92 128.315 146.223C128.154 146.526 128.074 146.846 128.074 147.182ZM126.93 159L136.93 144.455H138.791L128.791 159H126.93Z" fill="black"/>
<path d="M40.4205 104H35.2642V89.4545H40.4631C41.9261 89.4545 43.1856 89.7457 44.2415 90.3281C45.2973 90.9058 46.1094 91.7367 46.6776 92.821C47.2505 93.9053 47.5369 95.2027 47.5369 96.7131C47.5369 98.2282 47.2505 99.5303 46.6776 100.619C46.1094 101.708 45.2926 102.544 44.2273 103.126C43.1667 103.709 41.8977 104 40.4205 104ZM38.3395 101.365H40.2926C41.2017 101.365 41.9664 101.204 42.5866 100.882C43.2116 100.555 43.6804 100.051 43.9929 99.3693C44.3101 98.6828 44.4688 97.7973 44.4688 96.7131C44.4688 95.6383 44.3101 94.7599 43.9929 94.0781C43.6804 93.3963 43.214 92.8944 42.5938 92.5724C41.9735 92.2505 41.2088 92.0895 40.2997 92.0895H38.3395V101.365ZM52.2866 93.0909L54.2894 96.9048L56.342 93.0909H59.4457L56.2852 98.5455L59.5309 104H56.4414L54.2894 100.229L52.1729 104H49.0479L52.2866 98.5455L49.1616 93.0909H52.2866ZM65.9283 89.4545H69.7209L73.7266 99.2273H73.897L77.9027 89.4545H81.6953V104H78.7124V94.5327H78.5916L74.8274 103.929H72.7962L69.032 94.4972H68.9112V104H65.9283V89.4545ZM84.1722 104V93.0909H87.1978V104H84.1722ZM85.6921 91.6847C85.2423 91.6847 84.8564 91.5355 84.5344 91.2372C84.2172 90.9342 84.0586 90.572 84.0586 90.1506C84.0586 89.7339 84.2172 89.3764 84.5344 89.0781C84.8564 88.7751 85.2423 88.6236 85.6921 88.6236C86.1419 88.6236 86.5254 88.7751 86.8427 89.0781C87.1647 89.3764 87.3256 89.7339 87.3256 90.1506C87.3256 90.572 87.1647 90.9342 86.8427 91.2372C86.5254 91.5355 86.1419 91.6847 85.6921 91.6847ZM92.647 97.6932V104H89.6214V93.0909H92.505V95.0156H92.6328C92.8743 94.3812 93.2791 93.8793 93.8473 93.5099C94.4155 93.1359 95.1044 92.9489 95.9141 92.9489C96.6716 92.9489 97.3321 93.1146 97.8956 93.446C98.459 93.7775 98.897 94.2509 99.2095 94.8665C99.522 95.4773 99.6783 96.2064 99.6783 97.054V104H96.6527V97.5938C96.6574 96.9261 96.487 96.4053 96.1413 96.0312C95.7957 95.6525 95.3198 95.4631 94.7138 95.4631C94.3066 95.4631 93.9467 95.5507 93.6342 95.7259C93.3265 95.901 93.085 96.1567 92.9098 96.4929C92.7393 96.8243 92.6518 97.2244 92.647 97.6932ZM107.865 93.0909V95.3636H101.296V93.0909H107.865ZM102.787 90.4773H105.813V100.648C105.813 100.927 105.855 101.145 105.941 101.301C106.026 101.453 106.144 101.559 106.296 101.621C106.452 101.682 106.632 101.713 106.836 101.713C106.978 101.713 107.12 101.701 107.262 101.678C107.404 101.649 107.513 101.628 107.588 101.614L108.064 103.865C107.913 103.912 107.7 103.967 107.425 104.028C107.15 104.095 106.817 104.135 106.424 104.149C105.694 104.178 105.055 104.08 104.506 103.858C103.962 103.635 103.538 103.29 103.235 102.821C102.932 102.352 102.783 101.76 102.787 101.045V90.4773ZM120.332 93.0909V95.3636H113.599V93.0909H120.332ZM115.14 104V92.3026C115.14 91.5118 115.294 90.8561 115.602 90.3352C115.914 89.8144 116.34 89.4238 116.88 89.1634C117.42 88.9029 118.033 88.7727 118.719 88.7727C119.183 88.7727 119.607 88.8082 119.991 88.8793C120.379 88.9503 120.668 89.0142 120.857 89.071L120.317 91.3438C120.199 91.3059 120.052 91.2704 119.877 91.2372C119.707 91.2041 119.531 91.1875 119.352 91.1875C118.906 91.1875 118.596 91.2917 118.421 91.5C118.246 91.7036 118.158 91.9901 118.158 92.3594V104H115.14ZM126.761 104.213C125.639 104.213 124.673 103.986 123.863 103.531C123.058 103.072 122.438 102.423 122.002 101.585C121.567 100.742 121.349 99.7457 121.349 98.5952C121.349 97.473 121.567 96.4882 122.002 95.6406C122.438 94.7931 123.051 94.1326 123.842 93.6591C124.637 93.1856 125.57 92.9489 126.64 92.9489C127.36 92.9489 128.03 93.0649 128.65 93.2969C129.275 93.5241 129.82 93.8674 130.284 94.3267C130.752 94.786 131.117 95.3636 131.377 96.0597C131.638 96.7509 131.768 97.5606 131.768 98.4886V99.3196H122.556V97.4446H128.92C128.92 97.009 128.825 96.6231 128.636 96.2869C128.447 95.9508 128.184 95.688 127.848 95.4986C127.516 95.3045 127.13 95.2074 126.69 95.2074C126.231 95.2074 125.824 95.3139 125.468 95.527C125.118 95.7353 124.843 96.017 124.645 96.3722C124.446 96.7225 124.344 97.1132 124.339 97.544V99.3267C124.339 99.8665 124.439 100.333 124.637 100.726C124.841 101.119 125.127 101.422 125.497 101.635C125.866 101.848 126.304 101.955 126.811 101.955C127.147 101.955 127.455 101.907 127.734 101.812C128.013 101.718 128.252 101.576 128.451 101.386C128.65 101.197 128.802 100.965 128.906 100.69L131.704 100.875C131.562 101.547 131.271 102.134 130.831 102.636C130.395 103.134 129.832 103.522 129.14 103.801C128.454 104.076 127.661 104.213 126.761 104.213ZM138.714 104.213C137.592 104.213 136.626 103.986 135.816 103.531C135.011 103.072 134.391 102.423 133.956 101.585C133.52 100.742 133.302 99.7457 133.302 98.5952C133.302 97.473 133.52 96.4882 133.956 95.6406C134.391 94.7931 135.004 94.1326 135.795 93.6591C136.591 93.1856 137.523 92.9489 138.593 92.9489C139.313 92.9489 139.983 93.0649 140.603 93.2969C141.228 93.5241 141.773 93.8674 142.237 94.3267C142.706 94.786 143.07 95.3636 143.331 96.0597C143.591 96.7509 143.721 97.5606 143.721 98.4886V99.3196H134.51V97.4446H140.873C140.873 97.009 140.779 96.6231 140.589 96.2869C140.4 95.9508 140.137 95.688 139.801 95.4986C139.469 95.3045 139.083 95.2074 138.643 95.2074C138.184 95.2074 137.777 95.3139 137.422 95.527C137.071 95.7353 136.797 96.017 136.598 96.3722C136.399 96.7225 136.297 97.1132 136.292 97.544V99.3267C136.292 99.8665 136.392 100.333 136.591 100.726C136.794 101.119 137.081 101.422 137.45 101.635C137.819 101.848 138.257 101.955 138.764 101.955C139.1 101.955 139.408 101.907 139.687 101.812C139.967 101.718 140.206 101.576 140.404 101.386C140.603 101.197 140.755 100.965 140.859 100.69L143.657 100.875C143.515 101.547 143.224 102.134 142.784 102.636C142.348 103.134 141.785 103.522 141.093 103.801C140.407 104.076 139.614 104.213 138.714 104.213ZM147.464 104.185C146.995 104.185 146.593 104.019 146.257 103.688C145.925 103.351 145.76 102.949 145.76 102.48C145.76 102.016 145.925 101.618 146.257 101.287C146.593 100.955 146.995 100.79 147.464 100.79C147.919 100.79 148.316 100.955 148.657 101.287C148.998 101.618 149.169 102.016 149.169 102.48C149.169 102.793 149.088 103.079 148.927 103.339C148.771 103.595 148.565 103.801 148.309 103.957C148.054 104.109 147.772 104.185 147.464 104.185ZM147.464 96.5426C146.995 96.5426 146.593 96.3769 146.257 96.0455C145.925 95.714 145.76 95.3116 145.76 94.8381C145.76 94.3741 145.925 93.9787 146.257 93.652C146.593 93.3205 146.995 93.1548 147.464 93.1548C147.919 93.1548 148.316 93.3205 148.657 93.652C148.998 93.9787 149.169 94.3741 149.169 94.8381C149.169 95.1553 149.088 95.4441 148.927 95.7045C148.771 95.9602 148.565 96.1638 148.309 96.3153C148.054 96.4669 147.772 96.5426 147.464 96.5426ZM162.581 89.4545V104H159.506V92.3736H159.421L156.09 94.4616V91.7344L159.691 89.4545H162.581ZM167.054 104.185C166.585 104.185 166.183 104.019 165.847 103.688C165.515 103.351 165.349 102.949 165.349 102.48C165.349 102.016 165.515 101.618 165.847 101.287C166.183 100.955 166.585 100.79 167.054 100.79C167.509 100.79 167.906 100.955 168.247 101.287C168.588 101.618 168.759 102.016 168.759 102.48C168.759 102.793 168.678 103.079 168.517 103.339C168.361 103.595 168.155 103.801 167.899 103.957C167.643 104.109 167.362 104.185 167.054 104.185ZM176.331 104.32C175.11 104.315 174.059 104.014 173.178 103.418C172.302 102.821 171.627 101.957 171.154 100.825C170.685 99.6937 170.453 98.3324 170.458 96.7415C170.458 95.1553 170.692 93.8035 171.161 92.6861C171.634 91.5687 172.309 90.7187 173.185 90.1364C174.066 89.5492 175.114 89.2557 176.331 89.2557C177.548 89.2557 178.595 89.5492 179.471 90.1364C180.351 90.7235 181.028 91.5758 181.502 92.6932C181.975 93.8059 182.21 95.1553 182.205 96.7415C182.205 98.3371 181.968 99.7008 181.495 100.832C181.026 101.964 180.354 102.828 179.478 103.425C178.602 104.021 177.553 104.32 176.331 104.32ZM176.331 101.77C177.165 101.77 177.83 101.351 178.327 100.513C178.824 99.6747 179.07 98.4176 179.066 96.7415C179.066 95.6383 178.952 94.7197 178.725 93.9858C178.502 93.2519 178.185 92.7003 177.773 92.331C177.366 91.9616 176.885 91.777 176.331 91.777C175.503 91.777 174.84 92.1913 174.343 93.0199C173.846 93.8485 173.595 95.089 173.59 96.7415C173.59 97.8589 173.701 98.7917 173.924 99.5398C174.151 100.283 174.471 100.842 174.882 101.216C175.294 101.585 175.777 101.77 176.331 101.77ZM192.359 101.273V100.506C192.359 99.9233 192.482 99.3883 192.729 98.9006C192.98 98.4081 193.342 98.0152 193.815 97.7216C194.294 97.4233 194.876 97.2741 195.562 97.2741C196.259 97.2741 196.843 97.4209 197.317 97.7145C197.795 98.008 198.155 98.401 198.396 98.8935C198.643 99.3812 198.766 99.9186 198.766 100.506V101.273C198.766 101.855 198.643 102.393 198.396 102.885C198.15 103.373 197.788 103.763 197.31 104.057C196.831 104.355 196.249 104.504 195.562 104.504C194.866 104.504 194.282 104.355 193.808 104.057C193.335 103.763 192.975 103.373 192.729 102.885C192.482 102.393 192.359 101.855 192.359 101.273ZM194.426 100.506V101.273C194.426 101.609 194.507 101.926 194.668 102.224C194.833 102.523 195.132 102.672 195.562 102.672C195.993 102.672 196.287 102.525 196.443 102.232C196.604 101.938 196.685 101.618 196.685 101.273V100.506C196.685 100.16 196.609 99.8381 196.457 99.5398C196.306 99.2415 196.008 99.0923 195.562 99.0923C195.136 99.0923 194.84 99.2415 194.675 99.5398C194.509 99.8381 194.426 100.16 194.426 100.506ZM184.895 92.9489V92.1818C184.895 91.5947 185.02 91.0573 185.271 90.5696C185.522 90.0772 185.884 89.6842 186.358 89.3906C186.836 89.0971 187.414 88.9503 188.091 88.9503C188.792 88.9503 189.379 89.0971 189.852 89.3906C190.326 89.6842 190.686 90.0772 190.932 90.5696C191.178 91.0573 191.301 91.5947 191.301 92.1818V92.9489C191.301 93.536 191.176 94.0734 190.925 94.5611C190.679 95.0488 190.316 95.4394 189.838 95.733C189.365 96.0218 188.782 96.1662 188.091 96.1662C187.4 96.1662 186.815 96.0194 186.337 95.7259C185.863 95.4276 185.503 95.0369 185.257 94.554C185.016 94.0663 184.895 93.5312 184.895 92.9489ZM186.976 92.1818V92.9489C186.976 93.2945 187.056 93.6141 187.217 93.9077C187.383 94.2012 187.674 94.348 188.091 94.348C188.527 94.348 188.822 94.2012 188.979 93.9077C189.14 93.6141 189.22 93.2945 189.22 92.9489V92.1818C189.22 91.8362 189.144 91.5142 188.993 91.2159C188.841 90.9176 188.541 90.7685 188.091 90.7685C187.67 90.7685 187.378 90.92 187.217 91.223C187.056 91.526 186.976 91.8456 186.976 92.1818ZM185.832 104L195.832 89.4545H197.693L187.693 104H185.832Z" fill="black"/>
<path d="M43.4205 62H38.2642V47.4545H43.4631C44.9261 47.4545 46.1856 47.7457 47.2415 48.3281C48.2973 48.9058 49.1094 49.7367 49.6776 50.821C50.2505 51.9053 50.5369 53.2027 50.5369 54.7131C50.5369 56.2282 50.2505 57.5303 49.6776 58.6193C49.1094 59.7083 48.2926 60.544 47.2273 61.1264C46.1667 61.7088 44.8977 62 43.4205 62ZM41.3395 59.3651H43.2926C44.2017 59.3651 44.9664 59.2041 45.5866 58.8821C46.2116 58.5554 46.6804 58.0511 46.9929 57.3693C47.3101 56.6828 47.4688 55.7973 47.4688 54.7131C47.4688 53.6383 47.3101 52.7599 46.9929 52.0781C46.6804 51.3963 46.214 50.8944 45.5938 50.5724C44.9735 50.2505 44.2088 50.0895 43.2997 50.0895H41.3395V59.3651ZM55.2866 51.0909L57.2894 54.9048L59.342 51.0909H62.4457L59.2852 56.5455L62.5309 62H59.4414L57.2894 58.2287L55.1729 62H52.0479L55.2866 56.5455L52.1616 51.0909H55.2866ZM68.9283 62V47.4545H74.6669C75.7701 47.4545 76.71 47.6652 77.4865 48.0866C78.263 48.5033 78.8549 49.0833 79.2621 49.8267C79.674 50.5653 79.88 51.4176 79.88 52.3835C79.88 53.3494 79.6716 54.2017 79.255 54.9403C78.8383 55.679 78.2346 56.2543 77.4439 56.6662C76.6579 57.0781 75.7062 57.2841 74.5888 57.2841H70.9311V54.8196H74.0916C74.6835 54.8196 75.1712 54.7178 75.5547 54.5142C75.9429 54.3059 76.2318 54.0194 76.4212 53.6548C76.6153 53.2855 76.7124 52.8617 76.7124 52.3835C76.7124 51.9006 76.6153 51.4792 76.4212 51.1193C76.2318 50.7547 75.9429 50.473 75.5547 50.2741C75.1664 50.0705 74.674 49.9688 74.0774 49.9688H72.0036V62H68.9283ZM81.8207 62V51.0909H84.7539V52.9943H84.8675C85.0664 52.3172 85.4002 51.8059 85.869 51.4602C86.3377 51.1098 86.8775 50.9347 87.4883 50.9347C87.6398 50.9347 87.8031 50.9441 87.9783 50.9631C88.1535 50.982 88.3074 51.008 88.44 51.0412V53.7259C88.2979 53.6832 88.1014 53.6454 87.8505 53.6122C87.5996 53.5791 87.3699 53.5625 87.1616 53.5625C86.7165 53.5625 86.3188 53.6596 85.9684 53.8537C85.6228 54.0431 85.3481 54.3082 85.1445 54.6491C84.9457 54.9901 84.8462 55.383 84.8462 55.8281V62H81.8207ZM94.468 62.2131C93.3459 62.2131 92.38 61.9858 91.5703 61.5312C90.7654 61.072 90.1451 60.4233 89.7095 59.5852C89.2739 58.7424 89.0561 57.7457 89.0561 56.5952C89.0561 55.473 89.2739 54.4882 89.7095 53.6406C90.1451 52.7931 90.7583 52.1326 91.549 51.6591C92.3445 51.1856 93.2772 50.9489 94.3473 50.9489C95.067 50.9489 95.737 51.0649 96.3572 51.2969C96.9822 51.5241 97.5268 51.8674 97.9908 52.3267C98.4595 52.786 98.8241 53.3636 99.0845 54.0597C99.3449 54.7509 99.4751 55.5606 99.4751 56.4886V57.3196H90.2635V55.4446H96.6271C96.6271 55.009 96.5324 54.6231 96.343 54.2869C96.1536 53.9508 95.8909 53.688 95.5547 53.4986C95.2232 53.3045 94.8374 53.2074 94.397 53.2074C93.9377 53.2074 93.5305 53.3139 93.1754 53.527C92.825 53.7353 92.5504 54.017 92.3516 54.3722C92.1527 54.7225 92.0509 55.1132 92.0462 55.544V57.3267C92.0462 57.8665 92.1456 58.3329 92.3445 58.7259C92.5481 59.1188 92.8345 59.4219 93.2038 59.6349C93.5732 59.848 94.0111 59.9545 94.5178 59.9545C94.8539 59.9545 95.1617 59.9072 95.4411 59.8125C95.7204 59.7178 95.9595 59.5758 96.1584 59.3864C96.3572 59.197 96.5088 58.965 96.6129 58.6903L99.4112 58.875C99.2692 59.5473 98.978 60.1345 98.5376 60.6364C98.102 61.1335 97.5386 61.5218 96.8473 61.8011C96.1607 62.0758 95.3677 62.2131 94.468 62.2131ZM110.526 54.2017L107.756 54.3722C107.709 54.1354 107.607 53.9223 107.451 53.733C107.295 53.5388 107.089 53.3849 106.833 53.2713C106.582 53.1529 106.281 53.0938 105.931 53.0938C105.462 53.0938 105.067 53.1932 104.745 53.392C104.423 53.5862 104.262 53.8466 104.262 54.1733C104.262 54.4337 104.366 54.6539 104.575 54.8338C104.783 55.0137 105.14 55.1581 105.647 55.267L107.621 55.6648C108.682 55.8826 109.473 56.233 109.994 56.7159C110.514 57.1989 110.775 57.8333 110.775 58.6193C110.775 59.3343 110.564 59.9616 110.143 60.5014C109.726 61.0412 109.153 61.4626 108.424 61.7656C107.7 62.0639 106.864 62.2131 105.917 62.2131C104.473 62.2131 103.322 61.9124 102.465 61.3111C101.613 60.705 101.113 59.8812 100.967 58.8395L103.942 58.6832C104.032 59.1236 104.25 59.4598 104.596 59.6918C104.942 59.919 105.384 60.0327 105.924 60.0327C106.454 60.0327 106.88 59.9309 107.202 59.7273C107.529 59.5189 107.695 59.2514 107.7 58.9247C107.695 58.6501 107.579 58.4252 107.352 58.25C107.124 58.0701 106.774 57.9328 106.3 57.8381L104.411 57.4616C103.346 57.2486 102.553 56.8793 102.032 56.3537C101.516 55.8281 101.258 55.1581 101.258 54.3438C101.258 53.643 101.447 53.0393 101.826 52.5327C102.21 52.026 102.747 51.6354 103.438 51.3608C104.134 51.0862 104.949 50.9489 105.881 50.9489C107.259 50.9489 108.344 51.2401 109.134 51.8224C109.93 52.4048 110.394 53.1979 110.526 54.2017ZM115.791 62.206C115.095 62.206 114.475 62.0852 113.93 61.8438C113.386 61.5975 112.955 61.2353 112.637 60.7571C112.325 60.2741 112.169 59.6728 112.169 58.9531C112.169 58.3471 112.28 57.8381 112.502 57.4261C112.725 57.0142 113.028 56.6828 113.412 56.4318C113.795 56.1809 114.231 55.9915 114.718 55.8636C115.211 55.7358 115.727 55.6458 116.267 55.5938C116.901 55.5275 117.413 55.4659 117.801 55.4091C118.189 55.3475 118.471 55.2576 118.646 55.1392C118.821 55.0208 118.909 54.8456 118.909 54.6136V54.571C118.909 54.1212 118.767 53.7732 118.483 53.527C118.203 53.2808 117.806 53.1577 117.289 53.1577C116.745 53.1577 116.312 53.2784 115.99 53.5199C115.668 53.7566 115.455 54.0549 115.35 54.4148L112.552 54.1875C112.694 53.5246 112.974 52.9517 113.39 52.4688C113.807 51.9811 114.344 51.607 115.002 51.3466C115.665 51.0814 116.432 50.9489 117.304 50.9489C117.91 50.9489 118.49 51.0199 119.044 51.1619C119.602 51.304 120.097 51.5241 120.528 51.8224C120.964 52.1207 121.307 52.5043 121.558 52.973C121.809 53.437 121.934 53.9934 121.934 54.642V62H119.065V60.4872H118.98C118.805 60.8281 118.57 61.1288 118.277 61.3892C117.983 61.6449 117.63 61.8461 117.218 61.9929C116.806 62.1349 116.331 62.206 115.791 62.206ZM116.657 60.1179C117.102 60.1179 117.495 60.0303 117.836 59.8551C118.177 59.6752 118.445 59.4337 118.639 59.1307C118.833 58.8277 118.93 58.4844 118.93 58.1009V56.9432C118.835 57.0047 118.705 57.0616 118.539 57.1136C118.378 57.161 118.196 57.206 117.993 57.2486C117.789 57.2865 117.585 57.322 117.382 57.3551C117.178 57.3835 116.993 57.4096 116.828 57.4332C116.473 57.4853 116.163 57.5682 115.897 57.6818C115.632 57.7955 115.426 57.9493 115.279 58.1435C115.133 58.3329 115.059 58.5696 115.059 58.8537C115.059 59.2656 115.208 59.5805 115.507 59.7983C115.81 60.0114 116.193 60.1179 116.657 60.1179ZM127.307 47.4545V62H124.282V47.4545H127.307ZM134.702 62.2131C133.58 62.2131 132.614 61.9858 131.805 61.5312C131 61.072 130.379 60.4233 129.944 59.5852C129.508 58.7424 129.29 57.7457 129.29 56.5952C129.29 55.473 129.508 54.4882 129.944 53.6406C130.379 52.7931 130.993 52.1326 131.783 51.6591C132.579 51.1856 133.512 50.9489 134.582 50.9489C135.301 50.9489 135.971 51.0649 136.592 51.2969C137.217 51.5241 137.761 51.8674 138.225 52.3267C138.694 52.786 139.058 53.3636 139.319 54.0597C139.579 54.7509 139.71 55.5606 139.71 56.4886V57.3196H130.498V55.4446H136.862C136.862 55.009 136.767 54.6231 136.577 54.2869C136.388 53.9508 136.125 53.688 135.789 53.4986C135.458 53.3045 135.072 53.2074 134.631 53.2074C134.172 53.2074 133.765 53.3139 133.41 53.527C133.059 53.7353 132.785 54.017 132.586 54.3722C132.387 54.7225 132.285 55.1132 132.281 55.544V57.3267C132.281 57.8665 132.38 58.3329 132.579 58.7259C132.782 59.1188 133.069 59.4219 133.438 59.6349C133.808 59.848 134.246 59.9545 134.752 59.9545C135.088 59.9545 135.396 59.9072 135.675 59.8125C135.955 59.7178 136.194 59.5758 136.393 59.3864C136.592 59.197 136.743 58.965 136.847 58.6903L139.646 58.875C139.504 59.5473 139.212 60.1345 138.772 60.6364C138.336 61.1335 137.773 61.5218 137.082 61.8011C136.395 62.0758 135.602 62.2131 134.702 62.2131ZM152.179 51.0909V53.3636H145.446V51.0909H152.179ZM146.988 62V50.3026C146.988 49.5118 147.141 48.8561 147.449 48.3352C147.762 47.8144 148.188 47.4238 148.728 47.1634C149.267 46.9029 149.881 46.7727 150.567 46.7727C151.031 46.7727 151.455 46.8082 151.838 46.8793C152.227 46.9503 152.516 47.0142 152.705 47.071L152.165 49.3438C152.047 49.3059 151.9 49.2704 151.725 49.2372C151.554 49.2041 151.379 49.1875 151.199 49.1875C150.754 49.1875 150.444 49.2917 150.269 49.5C150.094 49.7036 150.006 49.9901 150.006 50.3594V62H146.988ZM158.609 62.2131C157.487 62.2131 156.521 61.9858 155.711 61.5312C154.906 61.072 154.286 60.4233 153.85 59.5852C153.415 58.7424 153.197 57.7457 153.197 56.5952C153.197 55.473 153.415 54.4882 153.85 53.6406C154.286 52.7931 154.899 52.1326 155.69 51.6591C156.485 51.1856 157.418 50.9489 158.488 50.9489C159.208 50.9489 159.878 51.0649 160.498 51.2969C161.123 51.5241 161.667 51.8674 162.131 52.3267C162.6 52.786 162.965 53.3636 163.225 54.0597C163.486 54.7509 163.616 55.5606 163.616 56.4886V57.3196H154.404V55.4446H160.768C160.768 55.009 160.673 54.6231 160.484 54.2869C160.294 53.9508 160.031 53.688 159.695 53.4986C159.364 53.3045 158.978 53.2074 158.538 53.2074C158.078 53.2074 157.671 53.3139 157.316 53.527C156.966 53.7353 156.691 54.017 156.492 54.3722C156.293 54.7225 156.192 55.1132 156.187 55.544V57.3267C156.187 57.8665 156.286 58.3329 156.485 58.7259C156.689 59.1188 156.975 59.4219 157.344 59.6349C157.714 59.848 158.152 59.9545 158.658 59.9545C158.995 59.9545 159.302 59.9072 159.582 59.8125C159.861 59.7178 160.1 59.5758 160.299 59.3864C160.498 59.197 160.649 58.965 160.754 58.6903L163.552 58.875C163.41 59.5473 163.119 60.1345 162.678 60.6364C162.243 61.1335 161.679 61.5218 160.988 61.8011C160.301 62.0758 159.508 62.2131 158.609 62.2131ZM170.562 62.2131C169.44 62.2131 168.474 61.9858 167.664 61.5312C166.859 61.072 166.239 60.4233 165.803 59.5852C165.368 58.7424 165.15 57.7457 165.15 56.5952C165.15 55.473 165.368 54.4882 165.803 53.6406C166.239 52.7931 166.852 52.1326 167.643 51.6591C168.438 51.1856 169.371 50.9489 170.441 50.9489C171.161 50.9489 171.831 51.0649 172.451 51.2969C173.076 51.5241 173.621 51.8674 174.085 52.3267C174.553 52.786 174.918 53.3636 175.178 54.0597C175.439 54.7509 175.569 55.5606 175.569 56.4886V57.3196H166.357V55.4446H172.721C172.721 55.009 172.626 54.6231 172.437 54.2869C172.247 53.9508 171.985 53.688 171.648 53.4986C171.317 53.3045 170.931 53.2074 170.491 53.2074C170.031 53.2074 169.624 53.3139 169.269 53.527C168.919 53.7353 168.644 54.017 168.445 54.3722C168.246 54.7225 168.145 55.1132 168.14 55.544V57.3267C168.14 57.8665 168.239 58.3329 168.438 58.7259C168.642 59.1188 168.928 59.4219 169.298 59.6349C169.667 59.848 170.105 59.9545 170.612 59.9545C170.948 59.9545 171.255 59.9072 171.535 59.8125C171.814 59.7178 172.053 59.5758 172.252 59.3864C172.451 59.197 172.603 58.965 172.707 58.6903L175.505 58.875C175.363 59.5473 175.072 60.1345 174.631 60.6364C174.196 61.1335 173.632 61.5218 172.941 61.8011C172.254 62.0758 171.461 62.2131 170.562 62.2131ZM179.312 62.1847C178.843 62.1847 178.441 62.0189 178.104 61.6875C177.773 61.3513 177.607 60.9489 177.607 60.4801C177.607 60.0161 177.773 59.6184 178.104 59.2869C178.441 58.9555 178.843 58.7898 179.312 58.7898C179.766 58.7898 180.164 58.9555 180.505 59.2869C180.846 59.6184 181.016 60.0161 181.016 60.4801C181.016 60.7926 180.936 61.0791 180.775 61.3395C180.619 61.5952 180.413 61.8011 180.157 61.9574C179.901 62.1089 179.62 62.1847 179.312 62.1847ZM179.312 54.5426C178.843 54.5426 178.441 54.3769 178.104 54.0455C177.773 53.714 177.607 53.3116 177.607 52.8381C177.607 52.3741 177.773 51.9787 178.104 51.652C178.441 51.3205 178.843 51.1548 179.312 51.1548C179.766 51.1548 180.164 51.3205 180.505 51.652C180.846 51.9787 181.016 52.3741 181.016 52.8381C181.016 53.1553 180.936 53.4441 180.775 53.7045C180.619 53.9602 180.413 54.1638 180.157 54.3153C179.901 54.4669 179.62 54.5426 179.312 54.5426ZM188.101 62V59.7841L193.278 54.9901C193.719 54.5639 194.088 54.1804 194.386 53.8395C194.689 53.4986 194.919 53.1648 195.075 52.8381C195.232 52.5066 195.31 52.1491 195.31 51.7656C195.31 51.3395 195.213 50.9725 195.018 50.6648C194.824 50.3523 194.559 50.1132 194.223 49.9474C193.887 49.777 193.506 49.6918 193.08 49.6918C192.634 49.6918 192.246 49.7817 191.915 49.9616C191.583 50.1416 191.328 50.3996 191.148 50.7358C190.968 51.072 190.878 51.4721 190.878 51.9361H187.959C187.959 50.9844 188.174 50.1581 188.605 49.4574C189.036 48.7566 189.64 48.2145 190.416 47.831C191.193 47.4474 192.088 47.2557 193.101 47.2557C194.143 47.2557 195.049 47.4403 195.821 47.8097C196.598 48.1742 197.201 48.6809 197.632 49.3295C198.063 49.9782 198.278 50.7216 198.278 51.5597C198.278 52.1089 198.17 52.651 197.952 53.1861C197.739 53.7211 197.357 54.3153 196.808 54.9688C196.259 55.6174 195.485 56.3963 194.486 57.3054L192.362 59.3864V59.4858H198.47V62H188.101ZM202.495 62.1847C202.027 62.1847 201.624 62.0189 201.288 61.6875C200.957 61.3513 200.791 60.9489 200.791 60.4801C200.791 60.0161 200.957 59.6184 201.288 59.2869C201.624 58.9555 202.027 58.7898 202.495 58.7898C202.95 58.7898 203.348 58.9555 203.689 59.2869C204.029 59.6184 204.2 60.0161 204.2 60.4801C204.2 60.7926 204.119 61.0791 203.958 61.3395C203.802 61.5952 203.596 61.8011 203.341 61.9574C203.085 62.1089 202.803 62.1847 202.495 62.1847ZM211.773 62.3196C210.551 62.3149 209.5 62.0142 208.619 61.4176C207.743 60.821 207.069 59.9569 206.595 58.8253C206.126 57.6937 205.894 56.3324 205.899 54.7415C205.899 53.1553 206.134 51.8035 206.602 50.6861C207.076 49.5687 207.75 48.7187 208.626 48.1364C209.507 47.5492 210.556 47.2557 211.773 47.2557C212.99 47.2557 214.036 47.5492 214.912 48.1364C215.793 48.7235 216.47 49.5758 216.943 50.6932C217.417 51.8059 217.651 53.1553 217.646 54.7415C217.646 56.3371 217.41 57.7008 216.936 58.8324C216.467 59.964 215.795 60.8281 214.919 61.4247C214.043 62.0213 212.994 62.3196 211.773 62.3196ZM211.773 59.7699C212.606 59.7699 213.271 59.3509 213.768 58.5128C214.266 57.6747 214.512 56.4176 214.507 54.7415C214.507 53.6383 214.393 52.7197 214.166 51.9858C213.944 51.2519 213.626 50.7003 213.214 50.331C212.807 49.9616 212.327 49.777 211.773 49.777C210.944 49.777 210.281 50.1913 209.784 51.0199C209.287 51.8485 209.036 53.089 209.031 54.7415C209.031 55.8589 209.143 56.7917 209.365 57.5398C209.592 58.2831 209.912 58.8419 210.324 59.2159C210.736 59.5852 211.219 59.7699 211.773 59.7699ZM227.801 59.2727V58.5057C227.801 57.9233 227.924 57.3883 228.17 56.9006C228.421 56.4081 228.783 56.0152 229.257 55.7216C229.735 55.4233 230.317 55.2741 231.004 55.2741C231.7 55.2741 232.285 55.4209 232.758 55.7145C233.236 56.008 233.596 56.401 233.838 56.8935C234.084 57.3812 234.207 57.9186 234.207 58.5057V59.2727C234.207 59.8551 234.084 60.3925 233.838 60.8849C233.592 61.3726 233.229 61.7633 232.751 62.0568C232.273 62.3551 231.69 62.5043 231.004 62.5043C230.308 62.5043 229.723 62.3551 229.25 62.0568C228.776 61.7633 228.416 61.3726 228.17 60.8849C227.924 60.3925 227.801 59.8551 227.801 59.2727ZM229.868 58.5057V59.2727C229.868 59.6089 229.948 59.9261 230.109 60.2244C230.275 60.5227 230.573 60.6719 231.004 60.6719C231.435 60.6719 231.728 60.5251 231.885 60.2315C232.046 59.938 232.126 59.6184 232.126 59.2727V58.5057C232.126 58.16 232.05 57.8381 231.899 57.5398C231.747 57.2415 231.449 57.0923 231.004 57.0923C230.578 57.0923 230.282 57.2415 230.116 57.5398C229.95 57.8381 229.868 58.16 229.868 58.5057ZM220.336 50.9489V50.1818C220.336 49.5947 220.462 49.0573 220.713 48.5696C220.964 48.0772 221.326 47.6842 221.799 47.3906C222.278 47.0971 222.855 46.9503 223.532 46.9503C224.233 46.9503 224.82 47.0971 225.294 47.3906C225.767 47.6842 226.127 48.0772 226.373 48.5696C226.619 49.0573 226.743 49.5947 226.743 50.1818V50.9489C226.743 51.536 226.617 52.0734 226.366 52.5611C226.12 53.0488 225.758 53.4394 225.279 53.733C224.806 54.0218 224.224 54.1662 223.532 54.1662C222.841 54.1662 222.256 54.0194 221.778 53.7259C221.305 53.4276 220.945 53.0369 220.699 52.554C220.457 52.0663 220.336 51.5312 220.336 50.9489ZM222.417 50.1818V50.9489C222.417 51.2945 222.498 51.6141 222.659 51.9077C222.824 52.2012 223.116 52.348 223.532 52.348C223.968 52.348 224.264 52.2012 224.42 51.9077C224.581 51.6141 224.662 51.2945 224.662 50.9489V50.1818C224.662 49.8362 224.586 49.5142 224.434 49.2159C224.283 48.9176 223.982 48.7685 223.532 48.7685C223.111 48.7685 222.82 48.92 222.659 49.223C222.498 49.526 222.417 49.8456 222.417 50.1818ZM221.274 62L231.274 47.4545H233.135L223.135 62H221.274Z" fill="black"/>
<path d="M234.42 19H229.264V4.45455H234.463C235.926 4.45455 237.186 4.74574 238.241 5.32812C239.297 5.90578 240.109 6.73674 240.678 7.82102C241.25 8.9053 241.537 10.2027 241.537 11.7131C241.537 13.2282 241.25 14.5303 240.678 15.6193C240.109 16.7083 239.293 17.544 238.227 18.1264C237.167 18.7088 235.898 19 234.42 19ZM232.339 16.3651H234.293C235.202 16.3651 235.966 16.2041 236.587 15.8821C237.212 15.5554 237.68 15.0511 237.993 14.3693C238.31 13.6828 238.469 12.7973 238.469 11.7131C238.469 10.6383 238.31 9.75994 237.993 9.07812C237.68 8.39631 237.214 7.89441 236.594 7.57244C235.973 7.25047 235.209 7.08949 234.3 7.08949H232.339V16.3651ZM243.815 19V4.45455H253.616V6.99006H246.89V10.456H253.112V12.9915H246.89V16.4645H253.645V19H243.815ZM258.689 4.45455L262.205 15.5057H262.339L265.862 4.45455H269.271L264.257 19H260.294L255.273 4.45455H258.689ZM275.097 6.99006V4.45455H287.043V6.99006H282.59V19H279.55V6.99006H275.097ZM292.343 19.2131C291.221 19.2131 290.255 18.9858 289.445 18.5312C288.64 18.072 288.02 17.4233 287.585 16.5852C287.149 15.7424 286.931 14.7457 286.931 13.5952C286.931 12.473 287.149 11.4882 287.585 10.6406C288.02 9.79309 288.633 9.13258 289.424 8.65909C290.219 8.18561 291.152 7.94886 292.222 7.94886C292.942 7.94886 293.612 8.06487 294.232 8.29688C294.857 8.52415 295.402 8.86742 295.866 9.3267C296.335 9.78598 296.699 10.3636 296.96 11.0597C297.22 11.7509 297.35 12.5606 297.35 13.4886V14.3196H288.138V12.4446H294.502C294.502 12.009 294.407 11.6231 294.218 11.2869C294.029 10.9508 293.766 10.688 293.43 10.4986C293.098 10.3045 292.712 10.2074 292.272 10.2074C291.813 10.2074 291.406 10.3139 291.05 10.527C290.7 10.7353 290.425 11.017 290.227 11.3722C290.028 11.7225 289.926 12.1132 289.921 12.544V14.3267C289.921 14.8665 290.021 15.3329 290.219 15.7259C290.423 16.1188 290.71 16.4219 291.079 16.6349C291.448 16.848 291.886 16.9545 292.393 16.9545C292.729 16.9545 293.037 16.9072 293.316 16.8125C293.595 16.7178 293.835 16.5758 294.033 16.3864C294.232 16.197 294.384 15.965 294.488 15.6903L297.286 15.875C297.144 16.5473 296.853 17.1345 296.413 17.6364C295.977 18.1335 295.414 18.5218 294.722 18.8011C294.036 19.0758 293.243 19.2131 292.343 19.2131ZM302.435 19.206C301.739 19.206 301.119 19.0852 300.575 18.8438C300.03 18.5975 299.599 18.2353 299.282 17.7571C298.969 17.2741 298.813 16.6728 298.813 15.9531C298.813 15.3471 298.924 14.8381 299.147 14.4261C299.37 14.0142 299.673 13.6828 300.056 13.4318C300.44 13.1809 300.875 12.9915 301.363 12.8636C301.855 12.7358 302.371 12.6458 302.911 12.5938C303.546 12.5275 304.057 12.4659 304.445 12.4091C304.834 12.3475 305.115 12.2576 305.29 12.1392C305.466 12.0208 305.553 11.8456 305.553 11.6136V11.571C305.553 11.1212 305.411 10.7732 305.127 10.527C304.848 10.2808 304.45 10.1577 303.934 10.1577C303.389 10.1577 302.956 10.2784 302.634 10.5199C302.312 10.7566 302.099 11.0549 301.995 11.4148L299.197 11.1875C299.339 10.5246 299.618 9.9517 300.035 9.46875C300.451 8.98106 300.989 8.60701 301.647 8.34659C302.31 8.08144 303.077 7.94886 303.948 7.94886C304.554 7.94886 305.134 8.01989 305.688 8.16193C306.247 8.30398 306.742 8.52415 307.173 8.82244C307.608 9.12074 307.951 9.50426 308.202 9.97301C308.453 10.437 308.579 10.9934 308.579 11.642V19H305.71V17.4872H305.624C305.449 17.8281 305.215 18.1288 304.921 18.3892C304.628 18.6449 304.275 18.8461 303.863 18.9929C303.451 19.1349 302.975 19.206 302.435 19.206ZM303.302 17.1179C303.747 17.1179 304.14 17.0303 304.481 16.8551C304.822 16.6752 305.089 16.4337 305.283 16.1307C305.478 15.8277 305.575 15.4844 305.575 15.1009V13.9432C305.48 14.0047 305.35 14.0616 305.184 14.1136C305.023 14.161 304.841 14.206 304.637 14.2486C304.433 14.2865 304.23 14.322 304.026 14.3551C303.823 14.3835 303.638 14.4096 303.472 14.4332C303.117 14.4853 302.807 14.5682 302.542 14.6818C302.277 14.7955 302.071 14.9493 301.924 15.1435C301.777 15.3329 301.704 15.5696 301.704 15.8537C301.704 16.2656 301.853 16.5805 302.151 16.7983C302.454 17.0114 302.838 17.1179 303.302 17.1179ZM310.926 19V8.09091H313.81V10.0156H313.938C314.165 9.37642 314.544 8.87216 315.074 8.50284C315.604 8.13352 316.239 7.94886 316.977 7.94886C317.725 7.94886 318.362 8.13589 318.888 8.50994C319.413 8.87926 319.764 9.38116 319.939 10.0156H320.053C320.275 9.39062 320.678 8.8911 321.26 8.51705C321.847 8.13826 322.541 7.94886 323.341 7.94886C324.359 7.94886 325.185 8.2732 325.82 8.92188C326.459 9.56581 326.778 10.4796 326.778 11.6634V19H323.76V12.2599C323.76 11.6539 323.599 11.1993 323.277 10.8963C322.955 10.5933 322.553 10.4418 322.07 10.4418C321.52 10.4418 321.092 10.617 320.784 10.9673C320.476 11.313 320.322 11.7699 320.322 12.3381V19H317.389V12.196C317.389 11.661 317.235 11.2348 316.928 10.9176C316.625 10.6004 316.224 10.4418 315.727 10.4418C315.391 10.4418 315.088 10.527 314.818 10.6974C314.553 10.8632 314.342 11.0975 314.186 11.4006C314.03 11.6989 313.952 12.0492 313.952 12.4517V19H310.926ZM330.937 19.1847C330.468 19.1847 330.066 19.0189 329.729 18.6875C329.398 18.3513 329.232 17.9489 329.232 17.4801C329.232 17.0161 329.398 16.6184 329.729 16.2869C330.066 15.9555 330.468 15.7898 330.937 15.7898C331.391 15.7898 331.789 15.9555 332.13 16.2869C332.471 16.6184 332.641 17.0161 332.641 17.4801C332.641 17.7926 332.561 18.0791 332.4 18.3395C332.244 18.5952 332.038 18.8011 331.782 18.9574C331.526 19.1089 331.245 19.1847 330.937 19.1847ZM330.937 11.5426C330.468 11.5426 330.066 11.3769 329.729 11.0455C329.398 10.714 329.232 10.3116 329.232 9.83807C329.232 9.37405 329.398 8.97869 329.729 8.65199C330.066 8.32055 330.468 8.15483 330.937 8.15483C331.391 8.15483 331.789 8.32055 332.13 8.65199C332.471 8.97869 332.641 9.37405 332.641 9.83807C332.641 10.1553 332.561 10.4441 332.4 10.7045C332.244 10.9602 332.038 11.1638 331.782 11.3153C331.526 11.4669 331.245 11.5426 330.937 11.5426ZM339.726 19V16.7841L344.903 11.9901C345.344 11.5639 345.713 11.1804 346.011 10.8395C346.314 10.4986 346.544 10.1648 346.7 9.83807C346.857 9.50663 346.935 9.14915 346.935 8.76562C346.935 8.33949 346.838 7.97254 346.643 7.66477C346.449 7.35227 346.184 7.11316 345.848 6.94744C345.512 6.77699 345.131 6.69176 344.705 6.69176C344.259 6.69176 343.871 6.78172 343.54 6.96165C343.208 7.14157 342.953 7.39962 342.773 7.7358C342.593 8.07197 342.503 8.47206 342.503 8.93608H339.584C339.584 7.98437 339.799 7.15814 340.23 6.45739C340.661 5.75663 341.265 5.21449 342.041 4.83097C342.818 4.44744 343.713 4.25568 344.726 4.25568C345.768 4.25568 346.674 4.44034 347.446 4.80966C348.223 5.17424 348.826 5.68087 349.257 6.32955C349.688 6.97822 349.903 7.72159 349.903 8.55966C349.903 9.1089 349.795 9.65104 349.577 10.1861C349.364 10.7211 348.982 11.3153 348.433 11.9688C347.884 12.6174 347.11 13.3963 346.111 14.3054L343.987 16.3864V16.4858H350.095V19H339.726ZM354.12 19.1847C353.652 19.1847 353.249 19.0189 352.913 18.6875C352.582 18.3513 352.416 17.9489 352.416 17.4801C352.416 17.0161 352.582 16.6184 352.913 16.2869C353.249 15.9555 353.652 15.7898 354.12 15.7898C354.575 15.7898 354.973 15.9555 355.314 16.2869C355.654 16.6184 355.825 17.0161 355.825 17.4801C355.825 17.7926 355.744 18.0791 355.583 18.3395C355.427 18.5952 355.221 18.8011 354.966 18.9574C354.71 19.1089 354.428 19.1847 354.12 19.1847ZM363.398 19.3196C362.176 19.3149 361.125 19.0142 360.244 18.4176C359.368 17.821 358.694 16.9569 358.22 15.8253C357.751 14.6937 357.519 13.3324 357.524 11.7415C357.524 10.1553 357.759 8.8035 358.227 7.68608C358.701 6.56865 359.375 5.71875 360.251 5.13636C361.132 4.54924 362.181 4.25568 363.398 4.25568C364.615 4.25568 365.661 4.54924 366.537 5.13636C367.418 5.72348 368.095 6.57576 368.568 7.69318C369.042 8.80587 369.276 10.1553 369.271 11.7415C369.271 13.3371 369.035 14.7008 368.561 15.8324C368.092 16.964 367.42 17.8281 366.544 18.4247C365.668 19.0213 364.619 19.3196 363.398 19.3196ZM363.398 16.7699C364.231 16.7699 364.896 16.3509 365.393 15.5128C365.891 14.6747 366.137 13.4176 366.132 11.7415C366.132 10.6383 366.018 9.7197 365.791 8.9858C365.569 8.25189 365.251 7.70028 364.839 7.33097C364.432 6.96165 363.952 6.77699 363.398 6.77699C362.569 6.77699 361.906 7.19129 361.409 8.01989C360.912 8.84848 360.661 10.089 360.656 11.7415C360.656 12.8589 360.768 13.7917 360.99 14.5398C361.217 15.2831 361.537 15.8419 361.949 16.2159C362.361 16.5852 362.844 16.7699 363.398 16.7699ZM379.426 16.2727V15.5057C379.426 14.9233 379.549 14.3883 379.795 13.9006C380.046 13.4081 380.408 13.0152 380.882 12.7216C381.36 12.4233 381.942 12.2741 382.629 12.2741C383.325 12.2741 383.91 12.4209 384.383 12.7145C384.861 13.008 385.221 13.401 385.463 13.8935C385.709 14.3812 385.832 14.9186 385.832 15.5057V16.2727C385.832 16.8551 385.709 17.3925 385.463 17.8849C385.217 18.3726 384.854 18.7633 384.376 19.0568C383.898 19.3551 383.315 19.5043 382.629 19.5043C381.933 19.5043 381.348 19.3551 380.875 19.0568C380.401 18.7633 380.041 18.3726 379.795 17.8849C379.549 17.3925 379.426 16.8551 379.426 16.2727ZM381.493 15.5057V16.2727C381.493 16.6089 381.573 16.9261 381.734 17.2244C381.9 17.5227 382.198 17.6719 382.629 17.6719C383.06 17.6719 383.353 17.5251 383.51 17.2315C383.671 16.938 383.751 16.6184 383.751 16.2727V15.5057C383.751 15.16 383.675 14.8381 383.524 14.5398C383.372 14.2415 383.074 14.0923 382.629 14.0923C382.203 14.0923 381.907 14.2415 381.741 14.5398C381.575 14.8381 381.493 15.16 381.493 15.5057ZM371.961 7.94886V7.18182C371.961 6.5947 372.087 6.05729 372.338 5.5696C372.589 5.07718 372.951 4.68419 373.424 4.39062C373.903 4.09706 374.48 3.95028 375.157 3.95028C375.858 3.95028 376.445 4.09706 376.919 4.39062C377.392 4.68419 377.752 5.07718 377.998 5.5696C378.244 6.05729 378.368 6.5947 378.368 7.18182V7.94886C378.368 8.53598 378.242 9.07339 377.991 9.56108C377.745 10.0488 377.383 10.4394 376.904 10.733C376.431 11.0218 375.849 11.1662 375.157 11.1662C374.466 11.1662 373.881 11.0194 373.403 10.7259C372.93 10.4276 372.57 10.0369 372.324 9.55398C372.082 9.06629 371.961 8.53125 371.961 7.94886ZM374.042 7.18182V7.94886C374.042 8.29451 374.123 8.61411 374.284 8.90767C374.449 9.20123 374.741 9.34801 375.157 9.34801C375.593 9.34801 375.889 9.20123 376.045 8.90767C376.206 8.61411 376.287 8.29451 376.287 7.94886V7.18182C376.287 6.83617 376.211 6.5142 376.059 6.21591C375.908 5.91761 375.607 5.76847 375.157 5.76847C374.736 5.76847 374.445 5.91998 374.284 6.22301C374.123 6.52604 374.042 6.84564 374.042 7.18182ZM372.899 19L382.899 4.45455H384.76L374.76 19H372.899Z" fill="black"/>
</svg>
